<?xml version="1.0" encoding="utf-8"?>
<!-- Generator: Adobe Illustrator 27.3.1, SVG Export Plug-In . SVG Version: 6.00 Build 0)  -->
<svg version="1.1" id="Layer_1" xmlns="http://www.w3.org/2000/svg" xmlns:xlink="http://www.w3.org/1999/xlink" x="0px" y="0px"
	 viewBox="0 0 366 314" style="enable-background:new 0 0 366 314;" xml:space="preserve">
<style type="text/css">
	.st0{fill:#45B3A1;}
	.st1{clip-path:url(#SVGID_00000000193855933336814690000013240368198998674848_);}
	.st2{fill:#FFFFFF;}
</style>
<path class="st0" d="M20,0h326c11,0,20,9,20,20v274c0,11-9,20-20,20H20c-11,0-20-9-20-20V20C0,9,9,0,20,0z"/>
<g>
	<defs>
		<path id="SVGID_1_" d="M58,0h225c1.1,0,2,0.9,2,2v226c0,1.1-0.9,2-2,2H58c-1.1,0-2-0.9-2-2V2C56,0.9,56.9,0,58,0z"/>
	</defs>
	<clipPath id="SVGID_00000183934400635784332510000010906117204396046743_">
		<use xlink:href="#SVGID_1_"  style="overflow:visible;"/>
	</clipPath>
	<g style="clip-path:url(#SVGID_00000183934400635784332510000010906117204396046743_);">
		<path class="st2" d="M196.2,133.9c-0.6-1.2,0.7-1.8,1.3-2.7c0.6-0.8,1.2-1.6,1.8-2.5c-3.3,1.6-5,4.7-7.2,7.3
			c4.2-0.3,8.4-0.6,12.9-0.9c-0.2,1.6-0.6,2.8-2.2,2.9c-3.1,0.2-6.2,1.2-9.4,0.9c-1.4-0.1-2.3-0.4-2.3-1.9c-4.2,3.5-8.5,6.8-12,11.1
			c-0.6,0-0.9,0.3-0.9,0.9c0.3-0.3,0.6-0.6,0.9-0.9c2.7-0.1,4.8,1.8,7.3,2.7c-3,0.7-5.9,1.6-8.2-1.7c-4.5,0.5-7.8,4.1-11.1,6.4
			c-5.1,3.5-10.5,5.9-16.1,7.8c-14.3,5.1-22.8-1.1-23-16.3c-0.1-10.3,3.7-19.5,7.8-28.7c2.1-4.6,5.3-8.6,6.4-13.7
			c3.1-2.8,5-6.3,6.5-10.2c1.5-0.1,1.8-2.4,3.6-1.9c-0.2-3.9,1.5-4.5,4.6-2.7c0,0,0,0,0,0c0.6,0.3,1.2,0.6,1.8,0.9
			c0.4,1,2.1,1.4,1.2,2.9c-1,1.8-2.6,0.4-3.9,0.8c1.8,1.1,2,2.1,0.5,3.9c-4.4,5.5-8.4,11.4-11.5,17.8c-4.2,8.7-7,17.7-6.5,27.5
			c0.3,5.8,3.9,10.8,11.9,8.6c2.4-0.7,4.5-1.8,6.6-3.1c12.5-8.1,22.9-18.6,32.7-29.7c3.1-3.5,6.8-6.7,8.7-11.1l0,0c0,0,0,0,0,0
			c0.7,0.1,0.9-0.3,0.9-0.9c0.6,0,0.9-0.3,1-0.9l-0.1-0.1c0,0,0.1,0.1,0.1,0.1c1.5-0.8,2.5-2,2.7-3.8c6.8-8.9,13.2-18.1,15-29.6
			c1.4-9.2-4.5-15.5-13.8-15.1c-6,0.3-11.3,2.7-16.2,5.9c-7.5,4.9-13.9,11-19,18.4c-1,1.4-1.7,4.5-4.7,2.7c-0.1-0.6-0.3-0.9-0.9-0.9
			c0-0.6-0.3-1-0.9-0.9c0.2-1.6-2.1-2.8-1-4.6c-2.7,0.5-2.9-3-5.8-3.5c2.7,2.8,4,5.3,1.2,8.1c1.8-0.7,3.7-2.8,5.5,0
			c0.3,0.3,0.6,0.6,0.9,0.9c0.1,0.6,0.2,1,0.9,0.9c0.2,4.7-1.1,6-5.5,5.5c-0.2-1.1-1-1.1-1.8-0.9c0-1.5-2.6-1.8-1.8-3.7
			c0.3-0.3,0.6-0.6,0.9-0.9l0,0c-0.7-0.1-0.9,0.3-0.9,0.9c-2.1,0.9-3.5-0.5-5-1.5c-3.4-2.2-6.8-4.5-10.2-6.7
			c3.1,3.3,6.8,5.7,10.5,8.1c1.1,0.7,2.8,1.2,1.5,3.1c-0.9,1.4-2.1,1.6-3.6,0.8c-0.7-0.4-1.4-0.6-2.1-0.9
			c-11.9-4.8-23.3-11.1-35.5-15.2c-4.5-1.5-7.5-4-8.4-8.7c-0.3-1.7-1.3-2.4-3.1-2.9c-1.9-0.6-4,0.7-5.1-0.3c-2.7-2.4-5.9-2.8-9-3.7
			c0.5,4.2-0.9,7.3-5.3,8.6c-1.1,0.3-2.1,1.2-1.9,2.2c0.3,1.1,2,1.5,2.7,0.9c1.8-1.6,2.9,0.4,4.4,0.4c-1.9,3.4-0.3,4.4,3,4.5
			c2.1,0.1,4.1-1.2,6.3,0.5c2.7,2.1,5.6,1.4,8.2-0.6c2.2-1.7,4.5-1.4,6.9-0.3c12.6,5.5,25.2,11,37.9,16.3c2.2,0.9,2.2,2.1,1.3,3.8
			c-2.8,3-4.9,6.4-6.5,10.2c-5.6,8.4-9.7,17.5-12.8,27c-1.9,5.7-2.9,11.6-2.6,17.7c0.4,6.9,2.8,13.6,8.3,17.2
			c6.8,4.5,15.2,6.8,23.4,7.1c9.1,0.3,18.4,1.9,27.2,0.6c7.4-1.1,14.3,0.8,21.5-0.2c1.1-0.1,2.2-0.2,3.3-0.2
			c-7.5,0.4-14.5-2.3-21.7-3.2c-2.3-0.3-4.4-0.2-6-2.3c-2.3-3.1-5.5-3.2-8.9-2.9c-0.5,0.3-1,0.5-1.4,0c-0.1-0.1,0.3-0.6,0.5-0.9
			c2.3-2.4,6-3,7.9-6c1.3,0,2.2-0.7,2.8-1.9c0.6,0,1-0.3,0.9-0.9c-0.5,0.1-1,0.2-0.9,0.9c0,0,0,0,0,0l0,0c-1.3,0.1-2.2,0.7-2.8,1.9
			c-1.2,0-2.3,0.5-3.6,0.4c-2.1-0.3-3.9-1.2-3.7-3.1c0.2-2.2,2.9-1.4,3.8-0.9c2.4,1.3,5.2-2.3,7.3,0.8c3.5-1.2,6.4-3.2,8.3-6.5l0,0
			c-3.8,0.3-7.7,1-11.4-2.4c4.5-1.7,8.8,0.8,12.7-1c0.3-1.2,1.2-2.1,2.2-1.1c0.6,0.6-0.6,1.4-1.4,1.8c-0.4,0.5-0.7,1.1-1.1,1.6
			c2.1,0.5,2.6-2.4,4.7-2.3c0.5,5.9-0.9,11.6-1.6,17.3c-0.2,1.5-1.2,3.7,1.5,4c4.6,0.5,9.2,0.8,15,1.3c-1.4-1-1.7-1.4-2.1-1.5
			c-8.5-1.5-9.3-2.4-8.5-11c0.1-0.8,0-1.6,0.2-2.3c1.5-6.5,0.8-13.5,4.6-19.4c-2.9,0.1-5.7,0.2-8.6,0.2
			C198.1,134.5,196.8,135.2,196.2,133.9z M142.5,144.9c0.4-3.6,0.5-7.4,3.4-11.4C145.6,138.2,144.4,141.7,142.5,144.9z M146.3,133.1
			c-0.1-0.1-0.3-0.2-0.3-0.3c0.1-0.3,0.2-0.5,0.3-0.8c0.1,0.1,0.3,0.2,0.3,0.3C146.6,132.5,146.4,132.8,146.3,133.1z M155,141.9
			c0.5,2.6-1.5,1.3-2.7,0.7c-0.1-2.2,1.6-3.4,2.6-5.1C155.9,139.1,154.7,140.3,155,141.9z M199.3,107.3L199.3,107.3
			C199.3,107.4,199.3,107.3,199.3,107.3z M209.3,81.5c0,0.5-0.2,0.8-0.7,0.8c0.1-0.4,0.3-0.8,0.4-1.2
			C209.1,81.3,209.3,81.4,209.3,81.5z M208.5,82.4c0.1,0.8,0.2,1.6-0.9,1.8C207.6,83.4,207.7,82.7,208.5,82.4z M206.7,86.1
			c0-0.8,0-1.5,0.9-1.8C207.8,85.1,207.8,85.9,206.7,86.1c-0.1,0.5-0.2,1-0.2,1.6c-0.2-0.1-0.5-0.2-0.6-0.3
			C205.8,86.7,206.1,86.2,206.7,86.1z M204.1,90.8c0.2-0.7,0.6-1.3,1.1-2.5c0.3,0.9,0.6,1.3,0.5,1.6c-0.2,0.5-0.4,1.1-0.8,1.5
			C204.3,91.9,204.1,91.1,204.1,90.8z M203.4,100.7c-0.1,0.1-0.2,0.1-0.3,0.1c0.1-0.1,0.2-0.3,0.3-0.4
			C203.4,100.5,203.4,100.7,203.4,100.7z M201.1,103.6c-0.4-1.6,0.5-2.3,1.9-2.7c0,0.6,0,1.2,0,1.8
			C202.4,103,201.8,103.4,201.1,103.6c0,0.6-0.2,1-0.9,1c-0.1,0.6-0.1,1.1-0.2,1.7c0,0,0.1,0.1,0.2,0.2l-0.2-0.2
			c-0.3,0.3-0.5,0.7-0.8,1c-0.3,0.3-0.6,0.6-0.9,0.9c-1.4-2.3,0.4-2.9,1.8-3.7C200.2,103.9,200.4,103.5,201.1,103.6z M162.8,107.6
			c1.4-1.7,2.8-3.2,3.7-5.2c0.8-1.8,1.8-2.7,3.9-1.8c2.1,0.9,1.5,2.1,1,3.7c-0.6,1.8-1.6,4.3,0.3,5.4c1.8,1,3.9-0.7,5.2-2.1
			c2.9-3.1,5.6-6.5,8.3-9.9c0.9-1.1,1.8-2.5,0.5-3.7c-1.2-1.3-2.9-1.8-4.6-0.6c-1.4,1-2.7,2-4,3.1c-1.1,0.9-2.1,2-3.4,0.4
			c-1-1.1-1.5-2.2-0.4-3.6c4.4-5.5,8.7-11.2,13.8-16.1c2.4-2.2,5.6-2.8,8.6-3c3.5-0.2,3.6,2.5,3.4,4.4c0.1,4-0.9,6.5-2.8,9.2
			c-4.3,6.2-7.1,13.3-11.6,19.4c-4.9,6.5-9.6,13.2-15.7,18.7c-1,0.9-2,2-3.2,2.6c-2.6,1.4-5.3,3.1-8.1,0.9c-2.5-2-2.8-4.9-2-8
			C156.8,116.2,159.4,111.7,162.8,107.6z M85,70.3c1.1-2.4,3.4-2.7,6.6-3.9C89.6,69.7,87.7,70.7,85,70.3z M187.6,143.7
			c-0.4,1.1-1.3,1.4-1.9,0.6c-0.6-0.7,0.3-1.2,1-1.5c1-2.3,2.9-3,5.2-3c3.3-0.1,6.6-0.3,10.2-0.5
			C198.5,145.6,192.3,142.4,187.6,143.7z M201.1,162.8c-0.2,1.4-1.2,2.9-2.7,2.5c-1.6-0.4-0.2-1.8-0.1-2.7c0.6-4.4,0.3-9.1,4.1-13
			C201.9,154,201.6,158.4,201.1,162.8z"/>
		<path class="st2" d="M170.8,69.4C170.8,69.4,170.8,69.4,170.8,69.4C170.7,69.4,170.7,69.4,170.8,69.4
			C170.7,69.4,170.8,69.4,170.8,69.4C170.8,69.4,170.8,69.4,170.8,69.4C170.8,69.4,170.8,69.4,170.8,69.4
			C170.8,69.4,170.8,69.4,170.8,69.4z"/>
		<path class="st2" d="M85,58.3C85,58.3,85.1,58.3,85,58.3C85.1,58.3,85.1,58.3,85,58.3L85,58.3z"/>
		<path class="st2" d="M152.3,92.6L152.3,92.6C152.3,92.6,152.3,92.6,152.3,92.6C152.3,92.6,152.3,92.6,152.3,92.6
			C152.3,92.6,152.3,92.6,152.3,92.6z"/>
		<path class="st2" d="M229.6,166.1c-3.1,0.5-3.9-1.3-4.5-3.9c-0.9-4.3-2-8.5-3.1-12.8c-0.3,4.6,1.9,8.7,1.7,13.3
			c-0.1,1.1,1.9,2.8-0.6,3.2c-2.1,0.4-2.5-1.3-2.8-2.9c-1.4-5.5-2.7-11.1-4.2-16.6c-1.7-6.3-1.8-6.3,1.7-11.7
			c0.5,1.7,0.9,3.4,1.4,5.1c0.5-6.4-2.6-12.2-2.3-18.5c-2.7,3.7-5.5,7.3-8.2,11c2.6-0.3,2.7,2,3.2,3.5c2.5,7.4,4.5,15,6.2,22.7
			c0.7,3.3,0.9,7.7,3.1,9.4c2.2,1.8,6.6,1.2,10,1.3c4.2,0.2,8.4,0,12.6,0C238.6,169.5,234.6,165.4,229.6,166.1z"/>
		<path class="st2" d="M117.4,33.3c2.8,2.1,4.5,5.6,6.1,8.2c2.7,4.4,5.5,6.7,10.3,7.1c1.5,0.1,2.4,1.1,3.7,1.3
			c-0.6-7.2-2.8-13.9-6.6-20.1c-1.1-1.8-2.6-5.6-2.9-5.5c-3.9,1.3-0.9,4.3-1.1,6.5c-0.1,1.4,0,2.9-1.1,3.8c-1.4,1.2-2.5-0.4-3.6-1
			c-1.2-0.7-2.3-1.5-3.5-2.3c-0.6-0.4-1.4-1-2-0.1C116.3,32.1,116.8,32.8,117.4,33.3z"/>
		<path class="st2" d="M93.3,46.4c-0.3,1.7-0.4,3.7,2.5,3.9c1,0.1,2.2,1.6,2.7,2.8c0.3,0.6-1.9-0.2-2.1,1.9c2.6-1.2,3.5,2.6,5.5,1.9
			c2.4-0.8,4,0.2,6,0.8c-1.8,1.6-4.1,0.6-5.8,1.8c2.9-0.2,5.2,1.8,7.9,1.9c2.7,0.2,5.5,0.3,8.2,0.5c-2.3-2.4-2.5-6.9-4.4-8.2
			c-3.7-2.5-5.5-7.9-11.4-7.8c-4.2,0-6.7-5.4-11.5-5.1C90.5,43.2,93.7,43.9,93.3,46.4z M93,42.1c0-0.1,0.5-0.3,0.8-0.5
			c0.2,0.4,0.4,0.7,0.4,1.1c0,0.1-0.4,0.3-0.7,0.5C93.3,42.9,93,42.5,93,42.1z"/>
		<path class="st2" d="M205.9,122.4c-0.1-2,2.1-2.9,1.7-4.8c-2.1,2.7-4.2,5.5-6.4,8.2c3-2.2,6.7-1.8,9.9-3.4
			C209.5,122.4,207.7,122.4,205.9,122.4z"/>
		<path class="st2" d="M146.8,61.3c-3.1-3.8-6.1-7.5-9.2-11.2C139.4,54.8,142.9,58.1,146.8,61.3z"/>
		<path class="st2" d="M137.6,50C137.6,50,137.6,50,137.6,50C137.6,50,137.6,50,137.6,50L137.6,50C137.6,50,137.6,50,137.6,50
			C137.6,50,137.6,50,137.6,50C137.6,50,137.6,50,137.6,50z"/>
		<path class="st2" d="M161.5,78.7C161.5,78.7,161.5,78.7,161.5,78.7C161.5,78.7,161.6,78.7,161.5,78.7L161.5,78.7z"/>
		<path class="st2" d="M131.2,72.2c2,2.1,4.4,3.8,7,5C136.1,75.2,134.3,72.7,131.2,72.2z"/>
		<path class="st2" d="M131.2,72.2C131.2,72.2,131.1,72.2,131.2,72.2L131.2,72.2C131.1,72.2,131.1,72.2,131.2,72.2z"/>
		<path class="st2" d="M123.8,66.7c2.2,2.1,4.5,4,7.2,5.4C129.4,69.3,127,67.5,123.8,66.7z"/>
		<path class="st2" d="M123.8,66.7C123.8,66.7,123.8,66.7,123.8,66.7l-0.1,0C123.7,66.7,123.8,66.7,123.8,66.7z"/>
		<path class="st2" d="M131.1,72.2C131.1,72.2,131.1,72.2,131.1,72.2C131.1,72.2,131.1,72.2,131.1,72.2L131.1,72.2z"/>
		<path class="st2" d="M123.7,66.6C123.7,66.6,123.7,66.6,123.7,66.6C123.7,66.6,123.7,66.6,123.7,66.6
			C123.7,66.7,123.7,66.6,123.7,66.6z"/>
		<path class="st2" d="M118.2,62C118.2,62,118.2,62,118.2,62C118.2,62,118.2,62,118.2,62C118.2,62,118.2,62,118.2,62
			C118.2,62,118.2,62,118.2,62z"/>
		<path class="st2" d="M123.7,66.6c-0.9-2.6-3.4-3.3-5.4-4.6C119.2,64.5,121.7,65.3,123.7,66.6z"/>
		<path class="st2" d="M221.5,113.8c2-0.8,2.5-2.6,2.7-4.6C222.7,110.4,222.1,112.1,221.5,113.8z"/>
		<path class="st2" d="M224.2,109.2C224.2,109.2,224.2,109.2,224.2,109.2C224.2,109.2,224.2,109.2,224.2,109.2
			C224.2,109.2,224.2,109.2,224.2,109.2C224.2,109.2,224.2,109.2,224.2,109.2z"/>
		<path class="st2" d="M221.5,113.8C221.5,113.8,221.4,113.8,221.5,113.8C221.4,113.8,221.4,113.9,221.5,113.8
			C221.5,113.9,221.5,113.9,221.5,113.8C221.5,113.8,221.5,113.8,221.5,113.8C221.5,113.8,221.5,113.8,221.5,113.8
			C221.4,113.8,221.5,113.8,221.5,113.8z"/>
		<path class="st2" d="M155.1,73.1L155.1,73.1C155.1,73.1,155.1,73.1,155.1,73.1c0,0.4-0.2,0.9,0.6,0.6
			C155.5,73.5,155.3,73.3,155.1,73.1c-0.5-1.1-0.6-2.5-2.5-2.3C153.3,71.8,153.6,73.1,155.1,73.1z"/>
		<path class="st2" d="M149.5,65.7c0,1.7,0.8,2.7,2.6,2.9C151.3,67.7,150.4,66.7,149.5,65.7c-0.6-1-0.7-2.6-2.5-2.4
			C147.7,64.5,148.1,65.6,149.5,65.7z"/>
		<path class="st2" d="M156,94.4C156,94.4,156,94.4,156,94.4C156,94.4,156,94.4,156,94.4C156,94.4,156,94.4,156,94.4
			C156,94.4,156,94.4,156,94.4z"/>
		<path class="st2" d="M152.3,92.6c0.9,1.2,2.3,1.5,3.7,1.8C155.4,92.6,153.9,92.5,152.3,92.6z"/>
		<path class="st2" d="M201.2,103.7C201.2,103.7,201.2,103.7,201.2,103.7C201.2,103.7,201.2,103.7,201.2,103.7
			C201.2,103.6,201.2,103.6,201.2,103.7C201.1,103.6,201.2,103.7,201.2,103.7z"/>
		<path class="st2" d="M200.3,104.6C200.3,104.6,200.3,104.6,200.3,104.6C200.3,104.6,200.2,104.6,200.3,104.6
			C200.2,104.6,200.2,104.6,200.3,104.6C200.2,104.6,200.3,104.6,200.3,104.6C200.3,104.6,200.3,104.6,200.3,104.6
			C200.3,104.6,200.3,104.6,200.3,104.6z"/>
		<path class="st2" d="M218.7,118.5c2-0.9,2.6-2.6,2.7-4.6c-0.4,0.2-0.9,0.5-1.3,0.4c-2.6-0.8-6.2,1.2-7.8-1.6
			c-1.1-1.9,5.5-8.4,8.5-8.8c1-0.1,2-0.3,3.8-0.6c-1.1-0.4-1.4-0.5-1.6-0.5c-1.5-0.2-3.8,0.9-4.2-0.5c-0.6-2,1.1-4.1,2.3-5.8
			c1.2-1.6,3.9-1.9,5-0.9c1.5,1.3,2.2,3.6,1.3,6c-1,2.6-2.8,4.7-3.1,7.6c1.2-0.6,1.5-1.8,2-2.9c5.5-11.1,7.9-22.8,8.9-35.1
			c0.5-5.8,0.8-10-5.1-13.8c-5.4-3.5-10.3-7.8-16.9-8.7c-6.4-0.9-12.7,1.4-18.4,3.3c-6.9,2.3-13.2,7.1-19.1,11.8
			c-2,1.5-4.1,3.1-5,5.6c7.2-6.5,16.6-9,24.6-14.2c2.7-1.7,5.7-3.1,8.7-4.1c12.3-4.5,21.6,1.6,22.2,14.8c0.4,8.3-1.7,16-4.6,24.1
			c-3.2,8.9-7.8,16.7-12.1,24.8c-0.1,0.2,0,0.6,0,0.9l0,0c2.8-2,5.9-0.7,8.8-0.4C220.9,115.7,218.4,117.4,218.7,118.5
			c-1,0.6-1.8,1.5-1.8,2.7C218.1,120.8,218.9,119.9,218.7,118.5z"/>
		<path class="st2" d="M216.9,121.3C216.9,121.3,216.9,121.2,216.9,121.3C216.9,121.2,216.9,121.2,216.9,121.3
			C216.8,121.2,216.8,121.3,216.9,121.3L216.9,121.3C216.8,121.3,216.8,121.3,216.9,121.3C216.8,121.3,216.9,121.3,216.9,121.3z"/>
		<path class="st2" d="M83.9,56.8c0.1,0.6,0.1,1.4,1.1,1.4c-0.2-0.6-0.4-1.2-0.6-1.9C84.3,56.5,83.9,56.7,83.9,56.8z"/>
		<path class="st2" d="M85,58.3L85,58.3C85.1,58.2,85,58.2,85,58.3C85,58.3,85,58.3,85,58.3z"/>
		<path class="st2" d="M209.5,115.7L209.5,115.7c-1.2,0-1.6,0.9-1.8,1.8C208.9,117.6,209.2,116.7,209.5,115.7z"/>
		<path class="st2" d="M207.7,117.5C207.6,117.5,207.6,117.5,207.7,117.5L207.7,117.5C207.6,117.5,207.6,117.5,207.7,117.5
			C207.6,117.6,207.6,117.6,207.7,117.5C207.6,117.6,207.6,117.6,207.7,117.5C207.6,117.6,207.6,117.5,207.7,117.5z"/>
		<path class="st2" d="M199.4,128.6C199.4,128.6,199.3,128.6,199.4,128.6L199.4,128.6C199.3,128.7,199.3,128.7,199.4,128.6
			c-0.1,0.1-0.1,0.1-0.1,0.1C199.3,128.7,199.3,128.7,199.4,128.6C199.4,128.7,199.4,128.7,199.4,128.6z"/>
		<path class="st2" d="M201.2,125.9L201.2,125.9C201.2,125.9,201.2,125.8,201.2,125.9C201.2,125.8,201.2,125.8,201.2,125.9
			C201.2,125.9,201.2,125.9,201.2,125.9C201.2,125.9,201.2,125.9,201.2,125.9C201.2,125.9,201.2,125.9,201.2,125.9z"/>
		<path class="st2" d="M201.2,125.9c-1.1,0.6-1.9,1.3-1.8,2.7C200.4,128,201.4,127.3,201.2,125.9z"/>
		<path class="st2" d="M169.8,70.4C169.8,70.3,169.8,70.3,169.8,70.4C169.8,70.3,169.9,70.3,169.8,70.4
			C169.8,70.3,169.8,70.3,169.8,70.4C169.8,70.3,169.8,70.3,169.8,70.4z"/>
		<path class="st2" d="M168.9,71.1c0.3-0.3,0.6-0.5,0.9-0.8c-0.4,0.1-0.8,0.2-1.1,0.2C168.7,70.8,168.8,71,168.9,71.1z"/>
		<path class="st2" d="M164.4,76C164.4,75.9,164.3,75.9,164.4,76C164.3,75.9,164.3,75.9,164.4,76C164.3,75.9,164.3,75.9,164.4,76
			C164.3,75.9,164.3,75.9,164.4,76z"/>
		<path class="st2" d="M165.2,74c-0.7,0.4-1.2,0.9-0.9,1.8C165,75.4,165.6,75,165.2,74z"/>
		<path class="st2" d="M164.3,75.9c-0.9-0.4-1.4,0.3-1.9,0.8C163.3,77.1,163.8,76.5,164.3,75.9z"/>
		<path class="st2" d="M162.4,76.8c-0.6,0.5-1,1-0.8,1.8C162.3,78.2,162.8,77.7,162.4,76.8z"/>
		<path class="st2" d="M161.5,78.7L161.5,78.7C161.6,78.7,161.6,78.7,161.5,78.7C161.6,78.7,161.5,78.7,161.5,78.7z"/>
		<path class="st2" d="M162.4,76.7C162.4,76.8,162.4,76.8,162.4,76.7C162.4,76.8,162.4,76.8,162.4,76.7
			C162.4,76.7,162.4,76.7,162.4,76.7C162.4,76.8,162.4,76.8,162.4,76.7C162.4,76.8,162.4,76.8,162.4,76.7
			C162.4,76.8,162.4,76.8,162.4,76.7z"/>
		<path class="st2" d="M156.9,83.3L156.9,83.3C157,83.3,157,83.3,156.9,83.3C157,83.3,156.9,83.3,156.9,83.3
			C156.9,83.3,156.9,83.3,156.9,83.3C156.9,83.3,156.9,83.3,156.9,83.3C156.9,83.3,156.9,83.3,156.9,83.3z"/>
		<path class="st2" d="M156.9,83.3c-0.7,0.4-1.1,1-0.9,1.8l0,0C156.8,84.7,157.2,84.2,156.9,83.3z"/>
		<path class="st2" d="M208.5,132.4C208.6,132.4,208.6,132.4,208.5,132.4C208.6,132.4,208.6,132.4,208.5,132.4
			C208.6,132.3,208.6,132.3,208.5,132.4C208.5,132.4,208.5,132.4,208.5,132.4z"/>
		<path class="st2" d="M207.6,134.2L207.6,134.2C207.6,134.2,207.6,134.2,207.6,134.2C207.6,134.2,207.6,134.2,207.6,134.2
			C207.6,134.2,207.6,134.2,207.6,134.2C207.6,134.2,207.6,134.2,207.6,134.2C207.6,134.2,207.6,134.2,207.6,134.2z"/>
		<path class="st2" d="M207.6,134.2c0.8-0.4,1.2-0.9,0.9-1.8C207.8,132.8,207.6,133.4,207.6,134.2z"/>
		<path class="st2" d="M169.9,70.3c0.3-0.3,0.6-0.6,0.9-0.9C170.1,69.4,169.8,69.7,169.9,70.3z"/>
		<path class="st2" d="M166.2,73.1C166.2,73.1,166.1,73.1,166.2,73.1L166.2,73.1C166.2,73.1,166.2,73.1,166.2,73.1z"/>
		<path class="st2" d="M166.8,72.6c-0.2,0.2-0.4,0.3-0.6,0.5C166.7,73.3,166.9,73.3,166.8,72.6z"/>
		<path class="st2" d="M166.1,73.1c-0.3,0.3-0.6,0.6-0.9,0.9C165.9,74.1,166.2,73.8,166.1,73.1z"/>
		<path class="st2" d="M166.1,73.1C166.1,73.1,166.1,73.1,166.1,73.1C166.1,73.1,166.2,73.1,166.1,73.1
			C166.2,73.1,166.1,73.1,166.1,73.1z"/>
		<path class="st2" d="M165.3,74C165.2,74,165.2,74,165.3,74C165.2,74,165.2,74,165.3,74C165.2,74,165.2,74,165.3,74
			C165.2,74,165.2,74,165.3,74z"/>
		<path class="st2" d="M184.6,155.5C184.6,155.5,184.6,155.5,184.6,155.5C184.6,155.5,184.6,155.5,184.6,155.5
			C184.6,155.5,184.6,155.5,184.6,155.5C184.6,155.5,184.6,155.5,184.6,155.5z"/>
		<path class="st2" d="M193.8,148.1C193.8,148.1,193.8,148.1,193.8,148.1C193.8,148.1,193.8,148.1,193.8,148.1
			C193.8,148.1,193.8,148.1,193.8,148.1C193.8,148.1,193.8,148.1,193.8,148.1z"/>
		<path class="st2" d="M192.9,149.1c0.6,0,1-0.2,0.9-0.9C193.5,148.4,193.2,148.7,192.9,149.1L192.9,149.1z"/>
		<path class="st2" d="M178.1,149C178.1,149,178.1,149,178.1,149C178.1,149,178.1,149,178.1,149C178.1,149,178.1,149,178.1,149
			C178.1,149,178.1,149,178.1,149z"/>
		<path class="st2" d="M191.1,137C191.1,137,191,137,191.1,137C191,137,191,137,191.1,137C191,137,191,137,191.1,137
			C191.1,137,191.1,137,191.1,137z"/>
		<path class="st2" d="M191.9,136.1c-0.3,0.3-0.6,0.6-0.9,0.9C191.7,137,191.9,136.7,191.9,136.1z"/>
		<path class="st2" d="M192,136.1L192,136.1C192,136.1,192,136.1,192,136.1C192,136.1,192,136.1,192,136.1
			C192,136.1,191.9,136.1,192,136.1C192,136.1,192,136.1,192,136.1C192,136.1,192,136.1,192,136.1z"/>
	</g>
</g>
<path class="st2" d="M106,197.9v42.3H94.2v-23.3l-8,23.3h-9.8l-8-23.5v23.5H56.6v-42.3h14.2l10.6,27.5l10.4-27.5H106z M124.4,197.9
	v42.3h-11.8v-42.3H124.4z M147.1,240.6c-4.9,0-9-1.2-12.1-3.5c-3.2-2.4-4.9-5.7-5.1-10.1h12.5c0.1,1.5,0.6,2.6,1.3,3.2
	c0.8,0.7,1.7,1,2.9,1c1.1,0,2-0.3,2.6-0.8c0.7-0.6,1.1-1.3,1.1-2.3c0-1.2-0.6-2.2-1.7-2.9c-1.2-0.7-3-1.4-5.6-2.3
	c-2.8-0.9-5-1.8-6.7-2.6c-1.7-0.9-3.2-2.1-4.4-3.8c-1.2-1.7-1.9-3.9-1.9-6.5c0-2.7,0.7-5,2-7c1.4-2,3.2-3.4,5.6-4.4
	c2.4-1,5.1-1.5,8.2-1.5c4.9,0,8.8,1.2,11.8,3.5c3,2.3,4.5,5.5,4.7,9.7h-12.8c0-1.3-0.4-2.2-1.2-2.9c-0.7-0.6-1.7-1-2.8-1
	c-0.9,0-1.6,0.3-2.2,0.8s-0.8,1.3-0.8,2.2c0,0.8,0.3,1.5,0.9,2.1c0.6,0.6,1.4,1.1,2.3,1.5c0.9,0.4,2.3,0.9,4.1,1.6
	c2.7,0.9,4.9,1.8,6.6,2.8c1.8,0.9,3.3,2.1,4.5,3.8c1.3,1.6,1.9,3.6,1.9,6.1c0,2.5-0.6,4.8-1.9,6.8c-1.2,2-3.1,3.6-5.5,4.7
	C153.1,240,150.3,240.6,147.1,240.6z M184.3,240.6c-4.9,0-9-1.2-12.1-3.5c-3.2-2.4-4.9-5.7-5.1-10.1h12.5c0.1,1.5,0.6,2.6,1.3,3.2
	c0.8,0.7,1.7,1,2.9,1c1.1,0,2-0.3,2.6-0.8c0.7-0.6,1.1-1.3,1.1-2.3c0-1.2-0.6-2.2-1.7-2.9c-1.2-0.7-3-1.4-5.6-2.3
	c-2.8-0.9-5-1.8-6.7-2.6c-1.7-0.9-3.2-2.1-4.4-3.8c-1.2-1.7-1.9-3.9-1.9-6.5c0-2.7,0.7-5,2-7c1.4-2,3.2-3.4,5.6-4.4
	c2.4-1,5.1-1.5,8.2-1.5c4.9,0,8.8,1.2,11.8,3.5c3,2.3,4.5,5.5,4.7,9.7h-12.8c0-1.3-0.4-2.2-1.2-2.9c-0.7-0.6-1.7-1-2.8-1
	c-0.9,0-1.6,0.3-2.2,0.8s-0.8,1.3-0.8,2.2c0,0.8,0.3,1.5,0.9,2.1c0.6,0.6,1.4,1.1,2.3,1.5c0.9,0.4,2.3,0.9,4.1,1.6
	c2.7,0.9,4.9,1.8,6.6,2.8c1.8,0.9,3.3,2.1,4.5,3.8c1.3,1.6,1.9,3.6,1.9,6.1c0,2.5-0.6,4.8-1.9,6.8c-1.2,2-3.1,3.6-5.5,4.7
	C190.3,240,187.5,240.6,184.3,240.6z M217.3,197.9v42.3h-11.8v-42.3H217.3z M244.3,240.6c-4,0-7.6-0.9-10.9-2.8
	c-3.3-1.9-6-4.5-7.9-7.7c-1.9-3.3-2.9-7.1-2.9-11.2s1-7.9,2.9-11.2c2-3.3,4.6-5.9,7.9-7.7c3.3-1.8,7-2.8,10.9-2.8
	c4,0,7.6,0.9,10.9,2.8c3.3,1.8,5.9,4.4,7.9,7.7c1.9,3.3,2.9,7,2.9,11.2s-1,7.9-2.9,11.2c-1.9,3.3-4.5,5.9-7.9,7.7
	C251.9,239.7,248.2,240.6,244.3,240.6z M244.3,229.7c3,0,5.4-1,7.1-2.9c1.8-2,2.6-4.6,2.6-7.9c0-3.4-0.9-6-2.6-7.9
	c-1.7-2-4.1-2.9-7.1-2.9c-3,0-5.4,1-7.1,2.9c-1.7,1.9-2.6,4.6-2.6,7.9c0,3.3,0.9,6,2.6,7.9C238.9,228.7,241.2,229.7,244.3,229.7z
	 M310.4,240.2h-11.8L283,216.5v23.6h-11.8v-42.3H283l15.7,23.9v-23.9h11.8V240.2z"/>
</svg>
