<svg width="109" height="109" viewBox="0 0 109 109" fill="none" xmlns="http://www.w3.org/2000/svg">
<path d="M7.89342 61.7818C8.79368 60.1327 9.22463 59.8107 10.9979 59.5181C10.5801 57.9729 10.8425 56.5418 11.8891 55.257C10.4822 53.3414 10.4004 51.4097 11.881 49.4154C11.0635 48.2769 10.569 47.0174 10.9232 45.5479C11.4056 43.5425 13.0295 42.1568 15.0925 42.1356C18.5199 42.1003 21.9484 42.1043 25.3758 42.1305C27.0179 42.1426 28.2774 43.38 28.2613 45.0231C28.2471 46.433 28.0604 47.8409 27.9716 49.2519C27.9575 49.4779 28.1038 49.7111 28.1059 49.9412C28.1149 51.5348 28.1109 53.1284 28.0948 54.721C28.0927 54.9229 27.9323 55.1298 27.9524 55.3236C28.0988 56.6972 28.2734 58.0677 28.449 59.5251C29.7176 59.5251 31.1235 59.5251 32.6505 59.5251C32.6505 59.2193 32.6505 58.8974 32.6505 58.5764C32.6505 52.3876 32.6283 46.1989 32.6576 40.0111C32.6839 34.4147 36.3414 29.8791 41.7823 28.5691C42.5261 28.3905 43.0873 28.4218 43.5839 29.1182C44.1268 29.8781 44.799 30.5463 45.3541 31.1851C45.3622 31.1841 45.1432 31.2215 44.8707 31.2689C46.3936 34.3128 47.8934 37.3103 49.5032 40.5268C49.9795 38.1137 50.4095 35.9387 50.8535 33.6911C51.8154 33.8385 52.7277 33.9787 53.7198 34.1311C53.1516 37.0681 52.6601 39.9586 52.0092 42.8128C51.6943 44.1935 51.772 45.3824 52.5107 46.6086C53.2243 47.7915 53.7754 49.0722 54.498 50.5074C55.4729 48.5403 56.3914 46.7519 57.2311 44.9272C57.3713 44.6234 57.2018 44.1581 57.1291 43.7766C56.5195 40.5934 55.8988 37.4122 55.264 34.1433C56.2057 33.9909 57.118 33.8425 58.1263 33.679C58.5663 35.9044 58.9983 38.0945 59.4787 40.5248C61.0723 37.3436 62.571 34.3532 64.1041 31.2941C63.8568 31.2366 63.6449 31.1871 63.4087 31.1326C63.4592 31.058 63.4945 30.9813 63.551 30.9257C64.2404 30.2445 64.9004 29.5279 65.6402 28.9072C65.9359 28.6589 66.4325 28.4601 66.7978 28.5136C71.393 29.1858 75.4835 33.3369 76.1486 37.9754C76.2687 38.8121 76.3262 39.6649 76.3283 40.5107C76.3434 46.4865 76.3363 52.4633 76.3363 58.4392C76.3363 58.7944 76.3363 59.1507 76.3363 59.5504C78.7787 59.5504 81.1333 59.5504 83.6171 59.5504C83.6171 58.7752 83.6171 58.0001 83.6171 57.225C83.6171 55.8292 83.6171 54.4344 83.6161 53.0386C83.6141 50.6578 84.3377 49.7737 86.7569 49.2933C86.4733 47.848 86.1928 46.4017 85.9061 44.9555C85.6861 43.8483 86.0767 43.0792 86.9659 42.8845C87.8328 42.6947 88.508 43.2518 88.7432 44.3741C89.0409 45.7972 89.3144 47.2253 89.6253 48.6463C89.6828 48.9077 89.8675 49.1409 89.9926 49.3881C90.142 49.1348 90.3691 48.8976 90.4276 48.6241C90.8404 46.6995 91.2118 44.7647 91.6105 42.837C91.8264 41.7934 92.5228 41.2474 93.3646 41.4271C94.2305 41.6118 94.6625 42.3829 94.4586 43.4042C94.069 45.3642 93.6734 47.3222 93.2717 49.3245C93.4453 49.3538 93.5856 49.3901 93.7289 49.3992C95.6091 49.5123 96.7123 50.6729 96.7203 52.5804C96.7294 54.8805 96.7224 57.1816 96.7224 59.5968C97.1947 59.5968 97.6075 59.5917 98.0203 59.5978C99.8319 59.622 101.061 60.816 101.086 62.6064C101.107 64.0012 101.107 65.398 101.086 66.7928C101.06 68.5489 99.8511 69.7631 98.1 69.7863C96.467 69.8075 94.833 69.7913 93.082 69.7913C93.082 70.2011 93.082 70.5533 93.082 70.9045C93.082 79.3379 93.083 87.7713 93.081 96.2046C93.0799 99.3596 91.34 101.102 88.182 101.102C65.7331 101.103 43.2841 101.103 20.8362 101.102C17.6207 101.102 15.8989 99.3747 15.8989 96.1532C15.8979 87.7501 15.8989 79.347 15.8989 70.9439C15.8989 70.5886 15.8989 70.2334 15.8989 69.7933C14.4223 69.7933 13.0305 69.7207 11.6489 69.8115C9.85643 69.9296 8.60596 69.2584 7.88938 67.6083C7.89342 65.6644 7.89342 63.7226 7.89342 61.7818ZM18.8156 69.8226C18.8156 70.2192 18.8156 70.519 18.8156 70.8187C18.8156 79.2501 18.8156 87.6804 18.8156 96.1118C18.8156 97.767 19.2435 98.1878 20.927 98.1878C43.3083 98.1888 65.6907 98.1888 88.072 98.1878C89.7443 98.1878 90.1723 97.7629 90.1723 96.0976C90.1733 87.636 90.1733 79.1744 90.1713 70.7138C90.1713 70.4221 90.145 70.1314 90.1309 69.8226C66.3437 69.8226 42.6372 69.8226 18.8156 69.8226ZM41.7631 31.5828C41.3433 31.7432 40.9668 31.8482 40.6257 32.0218C37.39 33.6629 35.6188 36.298 35.5814 39.9293C35.5179 46.2372 35.5623 52.5471 35.5663 58.856C35.5663 59.0871 35.6046 59.3182 35.6238 59.5261C48.2547 59.5261 60.822 59.5261 73.4004 59.5261C73.4105 59.3051 73.4246 59.1547 73.4246 59.0043C73.4256 52.6349 73.4307 46.2655 73.4176 39.895C73.4165 39.3228 73.3398 38.7445 73.2349 38.1813C72.6535 35.0788 69.9407 32.157 67.1924 31.6786C67.0441 31.9592 66.8846 32.2489 66.7373 32.5446C63.9315 38.153 61.1278 43.7615 58.3241 49.371C57.5651 50.8879 56.7981 52.4008 56.0553 53.9258C55.7222 54.61 55.3488 55.2277 54.4778 55.2176C53.6068 55.2075 53.2324 54.5798 52.9245 53.8904C52.8872 53.8077 52.8468 53.7259 52.8065 53.6442C49.7313 47.4948 46.656 41.3443 43.5798 35.1949C42.9844 34.008 42.3869 32.8242 41.7631 31.5828ZM98.1444 62.5761C68.992 62.5761 39.9233 62.5761 10.8526 62.5761C10.8526 64.0264 10.8526 65.4091 10.8526 66.8281C39.9677 66.8281 69.0364 66.8281 98.1444 66.8281C98.1444 65.395 98.1444 64.0113 98.1444 62.5761ZM93.7733 52.3796C91.3319 52.3796 88.9581 52.3796 86.6045 52.3796C86.6045 54.8179 86.6045 57.1907 86.6045 59.5504C89.0278 59.5504 91.3804 59.5504 93.7733 59.5504C93.7733 57.1513 93.7733 54.7998 93.7733 52.3796ZM25.3304 45.0342C21.9908 45.0342 18.7541 45.0301 15.5184 45.0362C14.384 45.0382 13.7168 45.5984 13.7269 46.5057C13.737 47.409 14.3991 47.9408 15.5507 47.9429C18.5764 47.9489 21.6032 47.9469 24.629 47.9429C24.8601 47.9429 25.0902 47.9045 25.3304 47.8833C25.3304 46.9286 25.3304 46.0313 25.3304 45.0342ZM25.3334 50.8606C21.9968 50.8606 18.7611 50.8566 15.5254 50.8626C14.385 50.8647 13.7199 51.4157 13.7269 52.323C13.734 53.2294 14.3971 53.7683 15.5426 53.7703C18.5996 53.7754 21.6557 53.7734 24.7127 53.7693C24.9136 53.7693 25.1144 53.732 25.3344 53.7108C25.3334 52.758 25.3334 51.8608 25.3334 50.8606ZM25.3304 56.6841C21.9908 56.6841 18.7541 56.68 15.5184 56.6861C14.3809 56.6881 13.7168 57.2442 13.7259 58.1535C13.736 59.0588 14.3971 59.5917 15.5486 59.5938C18.5754 59.5998 21.6012 59.5968 24.6279 59.5927C24.8591 59.5927 25.0892 59.5544 25.3314 59.5322C25.3304 58.5774 25.3304 57.6812 25.3304 56.6841Z" fill="#45B3A1"/>
<path d="M55.9513 7.89847C56.2087 7.9671 56.464 8.05188 56.7244 8.10234C62.6356 9.2428 66.8927 15.042 66.0762 20.8473C65.178 27.2308 59.8208 31.6615 53.5876 31.174C47.8167 30.7229 43.1135 25.9208 42.8572 20.2175C42.5897 14.2709 46.6722 9.10655 52.4472 8.07913C52.649 8.04279 52.8418 7.96003 53.0396 7.89847C54.0095 7.89847 54.9804 7.89847 55.9513 7.89847ZM54.5151 28.2835C59.3202 28.2744 63.2402 24.3363 63.2291 19.5292C63.218 14.7251 59.2809 10.8061 54.4727 10.8132C49.6687 10.8203 45.7507 14.7574 45.7598 19.5685C45.7689 24.3726 49.707 28.2926 54.5151 28.2835Z" fill="#45B3A1"/>
<path d="M54.4031 92.3634C46.8791 92.3634 39.3551 92.3644 31.831 92.3634C30.1567 92.3634 29.7378 91.9425 29.7378 90.2702C29.7368 86.0232 29.7348 81.7752 29.7378 77.5283C29.7388 76.1032 30.2233 75.6167 31.6484 75.6167C46.8781 75.6157 62.1078 75.6157 77.3375 75.6177C78.7656 75.6177 79.2491 76.0992 79.2501 77.5262C79.2541 81.8348 79.2541 86.1423 79.2501 90.4508C79.2491 91.8769 78.7646 92.3624 77.3395 92.3634C69.6944 92.3644 62.0493 92.3634 54.4031 92.3634ZM76.297 78.592C61.7172 78.592 47.2091 78.592 32.7242 78.592C32.7242 82.2445 32.7242 85.8324 32.7242 89.4032C47.2828 89.4032 61.7687 89.4032 76.297 89.4032C76.297 85.789 76.297 82.2223 76.297 78.592Z" fill="#45B3A1"/>
<path d="M66.0742 50.1309C65.4071 50.1299 64.7389 50.1471 64.0718 50.1259C63.1383 50.0956 62.5246 49.5183 62.5115 48.6937C62.4984 47.8661 63.106 47.2455 64.0294 47.2273C65.4242 47.2 66.82 47.2031 68.2148 47.2253C69.1504 47.2404 69.765 47.8298 69.7772 48.6524C69.7903 49.5072 69.1555 50.0936 68.1664 50.1279C67.803 50.141 67.4387 50.1309 67.0744 50.1319C66.7413 50.1319 66.4072 50.1319 66.0742 50.1309Z" fill="#45B3A1"/>
</svg>
