<svg width="36" height="36" viewBox="0 0 36 36" fill="none" xmlns="http://www.w3.org/2000/svg">
<g clip-path="url(#clip0_38_198)">
<path d="M21.2303 23.831C15.0853 27.7246 8.94568 24.8343 6.40802 21.047C3.51102 16.7236 4.14502 10.917 7.97502 7.34731C11.744 3.83431 17.5407 3.58231 21.6227 6.72198C25.6053 9.78531 27.3273 15.8386 23.8927 21.1136C26.3317 23.562 28.758 26.0136 31.206 28.4426C31.7403 28.973 32.0443 29.5313 31.7763 30.2756C31.5003 31.0433 30.9673 31.637 30.1633 31.731C29.7017 31.785 29.0577 31.6173 28.734 31.3033C26.2017 28.8473 23.7267 26.3316 21.2303 23.831ZM21.9333 15.097C21.9327 11.35 18.898 8.30298 15.1653 8.30165C11.4387 8.29998 8.39368 11.3543 8.39135 15.0966C8.38868 18.8366 11.43 21.887 15.164 21.8903C18.8937 21.8933 21.934 18.842 21.9333 15.097Z" fill="white"/>
</g>
<defs>
<clipPath id="clip0_38_198">
<rect width="36" height="36" fill="white"/>
</clipPath>
</defs>
</svg>
