<?xml version="1.0" encoding="utf-8"?>
<!-- Generator: Adobe Illustrator 27.3.1, SVG Export Plug-In . SVG Version: 6.00 Build 0)  -->
<svg version="1.1" id="Layer_1" xmlns="http://www.w3.org/2000/svg" xmlns:xlink="http://www.w3.org/1999/xlink" x="0px" y="0px"
	 viewBox="0 0 366 312.8" style="enable-background:new 0 0 366 312.8;" xml:space="preserve">
<style type="text/css">
	.st0{fill:#F26133;}
	.st1{fill:#FFFFFF;}
</style>
<path class="st0" d="M0,19.4C0,8.3,9-0.7,20-0.7h326c11,0,20,9,20,20.1v273.9c0,11.1-9,20.1-20,20.1H20c-11,0-20-9-20-20.1V19.4z"/>
<g>
	<path class="st1" d="M147.6,166.9c0,0,0.1,0.1,0.1,0.1c0,0,0,0,0,0c0,0,0,0,0,0C147.7,166.9,147.7,166.9,147.6,166.9z"/>
	<path class="st1" d="M166.8,60.2C166.8,60.2,166.8,60.1,166.8,60.2C166.8,60.1,166.8,60.1,166.8,60.2L166.8,60.2z"/>
	<path class="st1" d="M182.5,68.4C182.5,68.5,182.5,68.5,182.5,68.4C182.5,68.4,182.5,68.4,182.5,68.4
		C182.5,68.4,182.5,68.4,182.5,68.4C182.5,68.4,182.5,68.4,182.5,68.4L182.5,68.4C182.5,68.4,182.5,68.5,182.5,68.4
		C182.5,68.5,182.5,68.5,182.5,68.4L182.5,68.4z"/>
	<path class="st1" d="M258.7,98c-2.6-7.6-8.2-12.5-14.9-16.3l0,0c0.6,0.9,1.2,1.8,1.9,2.9c-1.7,1.2-4.2,0.4-5.6,2.4
		c8.2-1.6,12.4,0.4,15.7,6.7c1.3,2.5-0.3,2.2-2.3,2.2c2.6,1.8,6.5,2.4,4.9,6.3c-0.6,1.6-1.4,3.8-3.8,3.7c-2.8-0.1-4-2-4.7-5.3
		c-0.8,3.9,2.1,5.7,2.7,8.4c-3.9,1.6-6.9-2.6-11.7-1.7c4.6,1.7,8.6,2.4,12,4.6c1.1,0.7,2.3,1.3,1.4,2.8c-1.1,1.9-1.9,0.4-2.9-0.2
		c-5.3-3.5-10.9-2.2-12.6,2.9c-3.6,1.2-2.4,5.4-4.7,7.5c-1.5-3.2-0.3-8.4,2.3-9.8c0.3-0.2,0.7-0.2,0.7-0.6
		c-0.7-5.3,2.8-9.7,3.3-14.9c-1.9,0.6-1.8,3.9-4.8,2.7c-2.9-1.2-1.1-3.6-2.1-5.3c-2-0.2-0.3,2.3-2,2.5c0.3-3.2-1.4-5.8-2.3-8.6
		c-1.4,0.1-0.4,2.8-1.6,2.1c-1.6-0.9-1.9-2.8-1-4.6l0,0c-1.6-0.2-1.9-3.2-3.6-2.2c-1.7,0.9-2.1,3.2-2.2,5.3
		c-2.2-3.6-1.7-7.6-2.6-11.4c-0.8,4.8-1.9,9.4,1.9,13.9c1,1.1,0.6,3.4,3.1,2.8c0.5-0.1,0.8,0.7,0.6,1.2c-0.4,0.9-1,2-2.1,1.5
		c-2.6-1.2-3.3,0.5-4.2,2.2c-1.3,0.2-2.8,0.6-2.5-1.6c-2.2-0.3-2.2-0.3-2.4-2.6c-1.1,0.3-1.6,2.5-2.5,1.6c-4.5-4.4-4,1.9-6.1,2.7
		c-1.8,0.6-2.2,4.8-4.3,2.8c-1.6-1.5,2-2.5,2.8-4.1c0.1-0.1,0.1-0.3,0.2-0.4c0.2-0.1,0.4-0.2,0.6-0.4c-0.1-0.1-0.3-0.2-0.4-0.3
		c-0.1,0.2-0.1,0.4-0.2,0.6c-2.2-1-3.9-0.5-5.3,1.4c-0.4,0.4-0.7,0.8-1.2,0.1c-0.1-0.1,0.4-0.5,0.6-0.8c0-0.2,0-0.5,0.1-0.7
		c-2.4-0.1-3.2,2.2-4.9,3.2c-1.7,1-2.8,3.1-5,2.7c-0.2-5.5,1.1-10.5,2.9-15.5c0.8-2.1-2.4-0.3-2-2c0,0,0,0,0,0
		c0.8-1.7,1.4-3.5,2.3-5.1c2.5-4.4,6.2-7.2,11.2-8c1.5-0.2,1.4-2,2.7-2c0.5-0.9,1.3-1.6,2.3-2c0.3-0.2,0.6-0.4,0.9-0.6
		c1-0.9,1.5-2.8,3.6-1.9c-0.4,1.5-1.7,2-2.9,2.5c-0.3,0.3-0.6,0.5-0.9,0.8c-0.3,0.5-0.7,1-1,1.4c-0.4,0.1-0.8,0.3-1.2,0.4
		c0,0.5-0.2,1.1,0.6,1c0.8-0.1,0.9-0.7,0.7-1.4c1.7,0.2,2.3-1.8,3.8-2c0.5-0.5,1.2-1.4,1.8-0.7c0.8,0.9-0.4,1.1-0.9,1.5
		c-0.2,1-0.1,2.5,1.1,0.8c2.2-3.1,5.7-2.3,8.6-3.1c2.7-0.8-0.5,2.1-0.2,2.2c3,1.2,2.5-3,4.9-1.4c1.6,1.1,4.1-0.4,5.4,1.8
		c1.1,1.7,5.3,1.4,3.5,5.4c2-1.1,3.9-0.7,5.7,0.3c-4.9-4.1-9.7-8.6-16.6-9.4c-7.1-0.8-14-2.5-21.2,0c-7,2.5-12.8,6.6-18,11.7
		c-2.9-3.9-2.5-8-1.3-12.2c-1.1,0.3-0.8,2.4-2.5,2.2c-1.7-4.5-2.8-9.1-3.4-13.9c-0.2-2,0.2-3.2,2.6-2.5l0,0c0,0,0,0,0,0
		c-0.1,0.6,0.3,0.8,0.8,0.8c0,0.6,0.3,0.8,0.8,0.8c0.3,0.9,0.9,0.9,1.6,0.8c-0.3-0.7-0.9-0.8-1.6-0.8c0-0.5-0.3-0.8-0.8-0.8
		c-0.3-0.3-0.5-0.6-0.8-0.8c-1.4-1.9-3.4-4.3-1.5-6.1c1.8-1.7,4.8-1.1,6.9,0.9c0.1,0.1,0.2,0.1,0.4,0.2l0,0c0,0,0,0,0,0
		c0.5,1.4,0.8,3.1,2.6,3.7c-1-1.2-0.8-3.1-2.5-3.7c-0.5-1.5-0.1-2.5,1.6-3c1.8-0.5,3.6-1.3,4.6-3.1c-2.5,1.1-4.9,2.6-7.6,2.9
		c-0.9,0.1-2.5,0.4-2.2-0.9c0.5-2.7-1.2-6.5,3.2-7.7c0.7-0.2,2.1-0.3,1.7-1.8c-1.7-1.1-2.8,0.6-4.2,0.9c-0.3,0.1-0.8,0.4-0.9,0.3
		c-0.5-0.4-0.3-0.9,0.1-1.3c-0.1-0.3-0.2-0.5-0.3-0.7c-0.1-0.1-0.4-0.1-0.4-0.1c-1.2,2.7-1.2,6.1-4.7,7.7c-0.5-4,1.4-7.2,2.6-10.5
		c4.5-2.5,9.1-4.6,14.4-2.9c-6.7-2.3-11.1-1.3-14.5,2.8c0,0,0,0,0,0l0,0c-1.3,0.7-2.2,3.2-4.1,0.8c0,0,0,0,0,0
		c-1.2-4.1-4.6-2.1-7-2.3c-2-0.2-1.6,2.5-1.8,3.9c-0.4,2.4-0.5,5,0.9,7.2c1.1,1.8,0.3,2.3-1.3,2.9c-2.9,1-5.4,2.6-7.4,4.9
		c2.2,0.2,3.1-2,4.9-2.6c1-0.4,1.9-1.2,3-1.4c1.8-0.5,4.4-1.3,5.1,0.8c0.6,1.9-2.3,2.1-3.6,3.1c-0.2,0.1-0.5,0.1-0.8,0.1
		c-1.9,0.4-4.2,0.5-1.7,3.3c0.4,0.4-0.1,1.6,0.1,2.5c0.9-1.8,2-3.4,3.4-4.8c1.5-1.5,3-2.7,5.3-2.7c-0.3,5.3-3.9,8.6-6.5,12.3
		c3.5-2,5.5-5.2,6.8-8.8c0.3-0.6,0.3-1.9,1.4-1.2c0.9,0.6,0.8,1.6-0.4,2.2c-0.2,1.3-0.4,2.7,0,4c2.2,7.5,4.5,15,6.7,22.5
		c0.4,0.6,0.6,1.2,0,1.8c-0.3-0.4-0.7-0.7-1-1.1c-8.3-6.4-18.4-8.4-28-11.4c-3.1-1-6.3-0.7-8.8,1.9c3,1.2,7.1,0.4,8.7,4.7
		c1.9-1,2.5-4.6,5.1-3.9c0.9,0.2,4.1-0.5,3.6,2.5c1,0.1,2.1-1.2,3-0.1c1.5,1.8-1.7,2.5-1,4.6c2-1.4,4.2-2.8,5.6,0.6
		c2.2-0.1,1.9,0,2.6,2.3c0.4,1.3,2.3,2.1,3.5,3.1c0.4-0.3,0.8-0.7,1.2-0.2c0.1,0.2-0.1,0.6-0.2,0.9c0.3,3.4,0.5,6.8,3.3,9.3
		c0.2-2.4,0.9-4.6,2.8-6.4c0.4,2.6-0.6,4.9-2,7c-1,2.2,0.2,4.4,0.8,6.3c1.1,3.6-0.5,3.6-3.2,3.6c-2.3,0-4.4-0.9-6.8-0.6
		c-0.9,0.1-1.4-0.2-2,0.8c-0.6,0.9-1.4,1.9-2.5,0.4c-0.3-0.4-0.4-0.8-1.1-0.1c-1.3,1.4-1.4,1.3-2.8-0.4c-1.3,1,1.6,3-0.3,3
		c-1.3,0.1-3.8,0.2-4.2-2.5c-0.2-1.2-0.7-2.3-1.2-4.3c-0.5,2.9,0.4,4.8,1.4,6.7c0.5,1.1,0.3,1.9-0.8,2.3c-1.3,0.5-1.8-0.3-2.1-1.3
		c-0.5-2-1-4-1.5-6.4c-1.3,2.7,1.5,5.1-0.3,7.6c-2.3-3.2-1.6-7.2-3.6-10.5c-1-1.6,2.6-2.4,3.4-2.2c3.9,0.6,4.7-2.3,6.1-4.6
		c1.1-1.7,2.3-3.4,2.4-5.5c-5.7,0.8-7.9,5.6-10.9,10.4c-1.2-4,1.6-6.1,2-8.9c-4.5,1.1-3.2-4.1-6-5.3c0.1,1.6,1.3,3.5-0.7,4.4
		c-1.7,0.8-2.6-0.8-3.5-2c-0.1,0.2-0.3,0.5-0.3,0.7c0.2,1.8,2.2,3.4,1.4,5c-1.1,2.1-3.1-1.3-4.8,0c-0.3,0.2-0.7,0.2-1.1,0.4
		c0.7,2,2.4,2,3.8,2c2.8,0.1,4.2,1.1,3.5,4.1c-0.1,0.4-0.1,0.8-0.1,1.2c0.2,1.5,1.5,3.7-0.6,4.3c-1.5,0.4-1.9-2-2.6-3.2
		c-1.4-2.4-3.3-2.7-5.7-2.1c-1.7,0.4-3.2,1.4-5.1,1.5c-1.9,0.1-4.7,0-2.8,3.5c0.7,1.2-0.3,2.3-1.7,3.3c-1.2-3.5-4.7-6.4-0.9-10.3
		c1.8-0.5,1.3-2,0.8-2.9c-2.1-3.6,0.8-9.4,5.3-9.9c-0.6-0.8-2.3-0.6-1.9-2.2c1.1-0.3,1.8-2,3.3-0.9c-0.5-1.8,0.9-2.6,2.1-3.4
		c2.3-1.5,4.5-3.1,6.8-4.7c-4.9,1.9-9.4,4.1-12.2,9c-1.1,0.1-1.7,0.9-2.1,1.8c-2.8,6.5-6.2,12.7-8.8,19.4
		c-2.8,7.2-0.8,12.9,3.4,18.5c0,0,0,0,0,0c0,0,0,0,0,0c0,0,0,0,0,0c0,0,0,0,0,0c2.8,2,0.3,4.9,1.4,7.3c1.5,3.4,2.6,6.9,3.7,10.4
		c1,3.2,2.7,5.6,5.7,7.1l0.1-0.1c-2.8-3.2-5.1-6.7-5.8-11c-0.1-0.8-0.6-1.6,0.4-2.1c1-0.4,1.5,0.2,2,0.9c0.7,0.9,1.8,1.5,2.1,2.5
		c1,3,2,0.9,3,0.1c1.5,3.4,0.9,6.7,0.6,10.1c-0.1,1.8-1,0.5-1.6,0.5c2.1,6.1,8.1,4.2,12.2,6c-2.7,3.1-1.7,11.5,1.7,14.6
		c-2.3-2.4-1-5.5-1.1-8.3c-0.1-1.2,2.2-1.4,3.6-0.9c0.9,0.3,1.9,1.7,2.3-0.4c0.1-0.9,0.1-1.6,1.2-1.8c1.8-0.2,0.6,1.9,2.1,2.3
		c1-2.5,2.4-4.8,3.6,0c2-0.3,0.1-3.1,2.1-3c1.9,0.1,1,2.2,1.8,3.2c0.4,0.5,0.8,1,1.2,1.5c0.2,1-0.2,2.4,1.2,2.5
		c0.5,0-0.2-1.1-0.3-1.8c-0.3-0.2-0.6-0.5-0.9-0.7c0.4-1.5,1.1-1.3,1.9-0.2c0.4,0.5,0.8,1,1.4,1.7c0.7-0.8,0.1-1.5-0.2-2.1
		c-0.7-1.4-1.7-2.7,0-4c2-1.5,4.2-2.7,6.7-2.1c1.8,0.4,2.8,2.5,2.7,3.8c-0.3,3.1-1.9,5.8-5.2,6.6c-2.7,0.7-5.4,2.4-7.7,2.8
		c-4.5,0.7-8.6,4.4-13.5,2.6c6.7,4.6,13.7,1.7,20.1,0c6.9-1.8,13.2-0.2,19.6,0.9c3.5,0.6,6.5,3.1,10.7,3c7.6,0,14.3-1.4,20.5-5.9
		c5-3.7,8.9-8.9,15-11.2c7.6-2.9,12.7-10.4,13.3-18.3c0-0.5,0.4-1.1,0.8-1.3c2.8-1.3,3.7-4.3,4.8-6.6c2.4-4.9,4.3-10.2,3.6-15.9
		c-0.2,0.4-0.4,0.7-0.6,1.1c-1.4,13.5-10.5,21.4-22.7,27.5c-7.7,3.9-14.9,0.6-22.2,1.3c-2.4,0.2-4-0.7-2.4-3.7
		c0.9-1.7,1.5-3.5,1.4-6.6c-0.7,1.8-1,2.7-1.3,3.6c-1.5,5.1-2.2,5.7-7.5,4.4c-1.7-0.4-2.6,1.2-4.2,0.6c-2.7-0.9-5.2-5.8-4.3-8.9
		c0.8-2.9,3.6-4,7.2-3c0.3,0.1,0.5,0.1,0.8,0.2c5.5,1.5,5.5,1.5,3.8,6.7c-0.2,0.5-0.3,1-0.6,2.3c2.7-2.6,1.3-7.3,5.8-7.6
		c-3.1-3.9-7.6-3.1-11.5-4.4c5.3-1.9,10.5-3.7,16.3-2.9c0.8,0.1,0.6,1.1,0.7,1.7c2.9-0.6,5.2,1.1,6.7,2.9c1.7,2.1,3.6,2.1,5.2,1.2
		c1.8-1.1,3.7-2.4,4.9-0.5c1.5,2.2,6.1,4,2.5,7.8c7.4-5.9,17.3-9.4,19.6-20.2c0.2-1,1-1.9,1.6-2.8c0.2-0.4,0.5-0.7,0.7-1.1
		c0-2.1-0.4-4.2,0.5-6.1C260.5,103.7,259.7,100.9,258.7,98z M202.4,99.9L202.4,99.9C202.4,99.9,202.4,99.9,202.4,99.9z M213.1,68.8
		c0.3,0.3,0.5,0.5,0.8,0.7c-0.3,0.2-0.6,0.5-0.9,0.7c-0.6,0.3-0.6-0.3-0.8-0.5C212.5,69.5,212.7,69.2,213.1,68.8z M196.3,73.2
		c0.3-0.2,0.6-0.5,0.9-0.7c0.4-0.3,1.2-0.8,1.2-0.7c0.7,0.8-0.2,1-0.6,1.4c-0.3,0.2-0.5,0.5-0.8,0.7c-0.4,0.3-0.7,1-1.2,0.3
		C195.8,74,196.2,73.5,196.3,73.2z M195.2,75.1c0.1,0.1,0.2,0.2,0.3,0.2c0,0.1-0.1,0.2-0.1,0.3c-0.1-0.1-0.3-0.2-0.4-0.2
		C195.1,75.3,195.1,75.2,195.2,75.1z M191.7,78.1c0.1-0.3,0.5-0.6,0.8-0.7c0.5-0.2,0.7,0.2,0.6,0.6c-0.2,0.4-0.6,0.8-1.1,1.4
		C191.8,78.7,191.6,78.4,191.7,78.1z M167.6,41.4c-1.3-1.3-1.9-7.2-0.5-8.6c2-2.1,4.3-2.1,6.5,0c0.2,0.1,0.5,0.1,0.7,0.2
		c-0.1,0.8,0.5,1,1,1.5c1.8,1.8,0.5,4-0.5,5c-1.5,1.4-1.8-1.2-2.7-1.9c-0.8-0.6-0.8-2-2.4-2.4c0.9,2.1,3.1,4.1,0.5,6.1c0,0,0,0,0,0
		C169.3,41,168.6,42.4,167.6,41.4z M175,46.8c-2.4-1.1-5.1-2.2-4.9-5.6c3.6-0.8,4.7,1.8,5.8,4.3C176.2,46,175.8,47.1,175,46.8z
		 M173.5,81.2c-0.6,0.1-1-0.3-0.9-0.9c0-0.3,0.3-0.8,0.5-0.8c0.5,0,1,0.3,1,1.4C174.1,80.9,173.8,81.2,173.5,81.2z M142.5,108.5
		c-1.3-2.1-2.6-4.2-4.5-7.3C142,103,143.7,104.8,142.5,108.5z M134.4,102.4c1.9-0.9,2.6,0.9,3.6,2c2.2,2.4,3.1,5.4,4.1,8.4
		c0.3,0.9,0.6,2-0.3,2.7c-0.8,0.7-1.8,0.2-2.7-0.2c-4.4-2-8.2-5.9-8.2-8.6C130.6,104.3,132.6,103.3,134.4,102.4z M124.9,93.8
		c1,0.3,0.3,1.3,0.4,2c-0.7-0.2-1.6,0.2-1.7-0.9C123.6,94,124.4,93.6,124.9,93.8z M121.8,97.7c1.3,1.9,0.4,3-1.1,4
		C119.9,99.9,120.8,98.8,121.8,97.7z M125.7,129.9c-0.9-1.5-2.2-2.9-1.1-4.7c0.3-0.5,1.2,0,1.7,0.4
		C128,127.2,126.9,128.5,125.7,129.9z M123.7,124.3c0.1-0.1,0.2-0.3,0.3-0.3c0.2,0,0.4,0.2,0.6,0.3c-0.1,0.1-0.2,0.2-0.3,0.3
		C124.1,124.5,123.9,124.4,123.7,124.3z M161,147.2c0,2-0.3,3.1-2.5,3.4c-4.8,0.5-9.6,1.4-14.4,0.1c-1-0.3-2.2,0-2.5-1.6
		c-0.4-2.4-1-3.4-2.3-0.2c-0.5,1.3-1.9,0.4-2.5-0.5c-1.9-2.7-1-6,2.6-8.1c0,1.8,0,3.1,0,4.6c1.8-0.6,0.5-2.5,1.9-3.1
		c1,1,0.2,2.5,1.1,4.1c-0.3-3.2,1.5-5.2,3.6-5.6c1.4-0.3,4.2,1,3.5,3.9c2.3,0.7,2.2-3.4,3-2.1C154.7,145.5,161.2,140.6,161,147.2z
		 M161.8,135.3c-3.2-1-3-4.9-4.3-7.6c-0.4-0.9-0.1-2.1-0.1-3.8c-1.9,3.3-1.1,6.1,0,8.4c1.5,3.1,0,3.1-2.2,3.2
		c-10.7,0.2-20.4-2.6-28.1-10.4c-1.6-1.6-2.7-3.8-5.1-4.4c-0.8-3.7-3.5-6.7-3.7-10.7c-0.2-2.7,0.2-5.1,1.7-7.5
		c1.1,5.6,3.5,10.1,7.8,13.6c0.2,0.2,1.5,3,2.1-0.1c0.1-0.4,1-0.1,1.3,0.5c2.2,5,7.3,4.9,11.2,7c3.1,1.6,3.1-1.9,5.4-1.5
		c2.2,0.4,4.8,0.3,6.5-2.9c2.2-3.9,17.6-1.7,19.2,2.5c1.1,3,2.3,6.6-0.6,9.2C169.8,133.3,166.5,136.8,161.8,135.3z M166.8,149.6
		c-0.2,0.2-0.5,0.4-0.7,0.6c0,0-0.2-0.3-0.3-0.4C166.1,149.7,166.4,149.6,166.8,149.6c0.1-0.9,1-0.7,1.5-1.2
		c-0.2-0.1-0.3-0.3-0.5-0.4c-1.9-0.3-3.8,2.2-5.3,0.6c-0.5-0.6,0.9-2.9,0.7-4.8c-0.3-2.7,0.4-3.2,2.6-3.9c0.4-0.1,1-0.8,1-1.2
		c-0.1-3,1.3-3.8,4.1-3.3c3,0.5,5.7,1.4,6.1,5C177.9,147.5,175.1,150,166.8,149.6z M185.7,85.4c0.7-1.5,1.9-2.9,3.3-5
		c0.3,3.4-2,5.3-1.6,7.8C185.1,88.4,185,87,185.7,85.4z M213.4,169.4c-1.8,1.3-4.2,1.6-6.4,1c-2.7-0.7-5.4-1-7.9-1.9
		c-0.6-0.2-5.1,1.1-2.7-2.8c-0.7-0.2-1.7-0.8-2.2-0.5c-3.7,2.1-6.1-1.1-9.1-2.1c-0.9-0.3-1.1-1.1-1.2-2c-0.4-3.8,3.1-4.8,5.2-6.5
		c1.3-1,2.6,1.5,3.8,2c4.2,1.5,2.2,4.5,2.4,7.2c1.1-0.7,2-2.5,3.7-1.2c0.1-0.6,0-1.7,1-1c0.9,0.5,0.1,1.1-0.4,1.6
		c2,2.2,3.2,2.4,4.7,0.6c0.9-1.2,2-2,3.5-1.7c1.7,0.4,0.4,1.8,0.7,2.7c2,6.8,3.1-1.8,4.9,0.2C212.4,166.3,215.4,167.9,213.4,169.4z
		 M214.5,164.4c-0.2-0.1-0.4-0.2-0.5-0.3c0.1-0.1,0.2-0.3,0.3-0.3c0.2,0,0.4,0.2,0.5,0.2C214.7,164.2,214.6,164.2,214.5,164.4z
		 M209.8,148.5c3.1,1,6.1,2.1,8.7-1c0.3,0,0.6-0.1,0.9-0.1c-0.1,0.2-0.2,0.5-0.4,0.7c0.1,0.5-0.1,1.4,0.6,1.3c5.6-1.5,11,0.3,16.4,1
		c2.2,0.3,1.1,2,0.4,2.7c-2,2-4.4,3.4-7.1,4.1c-3.1,0.8-1-3.3-3.4-3.7c-0.3,0.9-0.5,1.8-0.9,2.8c-1.4,3.4-3.4,5.3-7.5,3.6
		c-4-1.6-8.7-1.2-12.3-4c-0.3-0.2-0.9-0.5-1.1-0.4c-6,3.4-3-1.1-2.5-3C203.3,146.4,203.4,146.4,209.8,148.5z M199.4,144.9
		c0.2,0,0.3,0.2,0.5,0.2c-0.1,0.1-0.2,0.2-0.3,0.3c-0.2-0.1-0.3-0.2-0.5-0.3C199.2,145,199.3,144.8,199.4,144.9z M198.7,146.1
		c1,0.3,2.9,1.2,2.4,3.3c-0.4,1.2-0.7,2.3-1.1,3.5c-0.4,1.3-1.1,2.3-2.6,1.9c-1.9-0.5-0.8-2-0.8-3c0.1-1.1,0.5-2.1,0.6-3.2
		C197.3,147.3,196.9,145.6,198.7,146.1z M196.8,146.5c-0.9,2.5,0.4,6-2.9,6.5c-4.9,0.8-8.8-2.2-9-6.2c-0.2-3.5,3.3-6.4,8.8-6.6
		C199.3,140.1,194.7,144.8,196.8,146.5z M217.3,101.6c0.7-0.5,1.4-1.1,2.2-1.4c2-0.8,1.4,0.5,1,1.5c0,0,0,0,0,0
		c-0.3,0.3-0.6,0.6-0.8,0.8h0c-0.3,0.3-0.5,0.5-0.8,0.8c-0.5,0.1-0.9,0.3-0.9,0.8C216,103.8,216.6,102.7,217.3,101.6z M213.4,114.4
		c-1.8,0.1-2-3.2-4.3-1.2c-0.4,0.4-2-1.2-1.8-2.2c0.2-1.6,1.4-0.6,2.2-0.4C211.4,111.1,215.4,109.5,213.4,114.4z M214.3,119.2
		c1.1-1.8-0.2-3.9,2.1-4.3c0.4-0.1,1.5,0.8,1.4,1.2C217.8,117.8,216.4,118.5,214.3,119.2z M226,104.5c-0.6,0.7-1.2,1.5-1.9,2.1
		c-0.5,0.4-1.2,0.4-1.8,0.6c0-0.8,0-1.5,0-2.3c0.6,0,0.8-0.3,0.8-0.8c0.6-0.2,1.1-0.5,1.7-0.7c0.1-0.4,0.2-0.7,0.2-1.1
		c-1.4-0.1-1.6,1-2,1.9c-0.3,0.3-0.5,0.5-0.8,0.8c-1.3,0.7-1.3,2.6-3.1,3.2c-0.3-1.4-0.7-2.7-1-4c0.6,0.1,0.9-0.2,0.8-0.8
		c0.6,0,0.9-0.2,0.8-0.8c0.6,0,0.8-0.3,0.8-0.9c0.6-0.3,1.2-0.5,1.6-0.9c1.8-1.5,4-1.4,5.4,0.1C229.2,102.4,226.8,103.3,226,104.5z
		 M231.1,110.6c-2.4-0.2,0.3-3.6-1.9-4.8c-0.4-0.2,1.3-1.5,2.3-1.6c1.9-0.2,1.2,1.8,2.1,2.5C232.9,108.2,232.8,110.7,231.1,110.6z
		 M251.4,119.8c-2.5,4.6-5.4,8.9-10.6,10.9c-2.5,0.9-4.3,0.2-4.5-2.9c-0.2-3.8,2-6.9,2.6-10.5c3.6-2.9,8.8-2.6,12.3,0.5
		C252,118.5,251.8,119,251.4,119.8z"/>
	<path class="st1" d="M168.7,78.7c0.5,0.1,0.1,0.1-0.1-0.3c0,0,0,0,0,0c0,0,0,0-0.1,0C168.6,78.5,168.6,78.6,168.7,78.7z"/>
	<path class="st1" d="M143.6,70.1C143.6,70.1,143.6,70.1,143.6,70.1L143.6,70.1C143.6,70.1,143.6,70.1,143.6,70.1z"/>
	<path class="st1" d="M236.3,137.2c0.1-0.1,0.2-0.2,0.2-0.2C236.5,137,236.4,137.1,236.3,137.2L236.3,137.2z"/>
	<path class="st1" d="M194.3,62.1c0.6-0.7,1.1-1.6-0.4-2.2c-4.9-2-11.9,3.2-11.3,8.5c1.2-0.3,2.2-0.9,3.5-0.9
		C189.8,67.5,192.1,64.8,194.3,62.1z M185.3,66.4c4.4-5.9,4.4-5.9,7.7-5.3C191.4,64.9,189.1,66.5,185.3,66.4z"/>
	<path class="st1" d="M165.1,61C165.1,61,165.1,61,165.1,61C165.1,61,165.1,61,165.1,61C165.1,61,165.1,61,165.1,61
		C165.1,61,165.1,61,165.1,61z"/>
	<path class="st1" d="M157.7,62.4c-2-2.1-4-4.6-2.3-8c0.6-1.1,1-2.2,1.5-3.4c0.7-0.3,1.2-0.8,0.8-1.7c-0.7,0.3-1,0.9-0.8,1.6
		c-4.3,4.3-4.3,8.2,1,12.3c2.7,2.1,5.5,0.4,7.3-2.3c-0.5,0.2-1,0.4-1.4,0.7C161.7,62.8,159.6,64.4,157.7,62.4z"/>
	<path class="st1" d="M192.9,29.2c0.4,0.1,0.8,0.3,1.2,0.4C193.7,29.5,193.3,29.3,192.9,29.2z"/>
	<path class="st1" d="M192.8,42.3c5.3-4.1,6.5-8.5,3-12.3C198.5,35.4,195.4,38.7,192.8,42.3z"/>
	<path class="st1" d="M132.8,80C132.8,80,132.8,80,132.8,80C132.8,80,132.8,80,132.8,80L132.8,80z"/>
	<path class="st1" d="M187.8,56.5c-4.4,1.7-2.3-3.4-4.5-3.8c-1,1.2,3.6,3.6-0.8,4.1C184.2,58.4,185.9,57.6,187.8,56.5z"/>
	<path class="st1" d="M243.8,81.7L243.8,81.7c-0.7-1.9-2.1-3-4.1-3.3C240.9,79.7,242.1,81,243.8,81.7z"/>
	<path class="st1" d="M239.7,78.4C239.7,78.4,239.7,78.4,239.7,78.4c-0.1-0.1-0.1-0.1-0.2-0.1C239.5,78.3,239.6,78.4,239.7,78.4
		C239.6,78.4,239.7,78.4,239.7,78.4z"/>
	<path class="st1" d="M147.7,167c0.2,1.5,1.3,1.7,2.5,1.6C149.6,167.7,148.8,167.2,147.7,167z"/>
	<path class="st1" d="M150.2,168.6C150.2,168.6,150.2,168.6,150.2,168.6C150.2,168.6,150.3,168.7,150.2,168.6
		C150.3,168.6,150.2,168.6,150.2,168.6C150.2,168.6,150.2,168.6,150.2,168.6z"/>
	<path class="st1" d="M143.6,70.1C143.6,70.1,143.6,70.1,143.6,70.1C143.6,70.1,143.6,70.1,143.6,70.1
		C143.6,70.1,143.6,70.1,143.6,70.1z"/>
	<path class="st1" d="M142,71.7C142,71.7,141.9,71.7,142,71.7c-0.1,0.1-0.2,0.1-0.3,0.2C141.8,71.9,141.9,71.8,142,71.7
		C142,71.8,142,71.7,142,71.7z"/>
	<path class="st1" d="M143.6,70.1c-0.8,0.3-1.6,0.6-1.6,1.6C142.8,71.5,143.7,71.3,143.6,70.1z"/>
	<path class="st1" d="M166.8,60.2L166.8,60.2C166.8,60.2,166.8,60.2,166.8,60.2C166.8,60.2,166.8,60.2,166.8,60.2z"/>
	<path class="st1" d="M165.2,61c0.7,0.1,1.3-0.1,1.6-0.8C166,60,165.5,60.3,165.2,61z"/>
	<path class="st1" d="M182.5,56.9L182.5,56.9C182.5,56.9,182.5,56.9,182.5,56.9C182.5,56.9,182.5,56.8,182.5,56.9
		C182.5,56.8,182.5,56.8,182.5,56.9C182.5,56.9,182.5,56.9,182.5,56.9C182.5,56.9,182.5,56.9,182.5,56.9z"/>
	<path class="st1" d="M157.7,49.4L157.7,49.4C157.7,49.4,157.7,49.4,157.7,49.4C157.7,49.4,157.7,49.4,157.7,49.4
		C157.7,49.4,157.7,49.4,157.7,49.4C157.7,49.4,157.7,49.4,157.7,49.4C157.7,49.4,157.7,49.4,157.7,49.4z"/>
	<path class="st1" d="M182.5,51.9C182.5,51.9,182.5,51.9,182.5,51.9L182.5,51.9c-0.2-0.9-0.7-1.5-1.7-1.7c-0.3-0.3-0.6-0.5-0.8-0.8
		c-0.1-0.2-0.1-0.9-0.6-0.3c0.2,0.1,0.4,0.2,0.6,0.3c0,0.5,0.3,0.8,0.8,0.8c0,0,0,0,0,0c0,0,0,0,0,0
		C180.9,51.3,181.5,51.8,182.5,51.9c0,0.6,0.2,0.9,0.8,0.8C183.3,52.2,183.1,51.9,182.5,51.9z"/>
	<path class="st1" d="M132.8,145.5c0,0.6,0.2,0.9,0.9,0.8C133.4,146,133.1,145.7,132.8,145.5L132.8,145.5z"/>
	<path class="st1" d="M133.7,146.3C133.7,146.3,133.7,146.3,133.7,146.3C133.7,146.3,133.7,146.3,133.7,146.3
		C133.7,146.3,133.7,146.3,133.7,146.3C133.7,146.3,133.7,146.3,133.7,146.3z"/>
	<path class="st1" d="M203.2,94.9c-0.4-1.2-0.8-2.4-1.4-4.4C201.4,93,202,94.1,203.2,94.9c0.1,0.7,0.5,1.2,1.2,1.3
		c0.1,0,0.3-0.2,0.2-0.3C204.4,95.4,204.1,94.8,203.2,94.9z"/>
	<path class="st1" d="M217.5,97.3c-0.9,0.4-1.3,0.9-1,1.8C217.1,98.7,217.7,98.2,217.5,97.3z"/>
	<path class="st1" d="M216.4,99.1c-0.8-0.3-1.2,0.2-1.6,0.8C215.6,100.1,216.1,99.8,216.4,99.1z"/>
	<path class="st1" d="M216.5,99.1C216.5,99.1,216.5,99.1,216.5,99.1C216.5,99.1,216.5,99.1,216.5,99.1
		C216.5,99.1,216.5,99.1,216.5,99.1C216.5,99.1,216.5,99.1,216.5,99.1C216.5,99.1,216.5,99.1,216.5,99.1
		C216.5,99.1,216.5,99.1,216.5,99.1z"/>
	<path class="st1" d="M214.8,99.9C214.8,99.9,214.8,99.9,214.8,99.9C214.8,99.9,214.8,99.9,214.8,99.9L214.8,99.9
		C214.8,99.9,214.8,99.9,214.8,99.9C214.8,99.9,214.8,99.9,214.8,99.9C214.8,99.9,214.8,99.9,214.8,99.9z"/>
	<path class="st1" d="M196.5,99.4c0,0.2,0,0.3,0.1,0.5c0.1-0.2,0.3-0.3,0.4-0.5C196.9,99.4,196.7,99.4,196.5,99.4z"/>
	<path class="st1" d="M196.6,99.9C196.6,99.9,196.6,99.9,196.6,99.9C196.6,99.9,196.6,99.9,196.6,99.9L196.6,99.9
		C196.6,99.9,196.6,99.9,196.6,99.9C196.6,99.9,196.6,99.9,196.6,99.9C196.6,99.9,196.6,99.9,196.6,99.9z"/>
	<path class="st1" d="M190.3,88.1l0.2-0.1l-0.2-0.2L190.3,88.1z"/>
	<path class="st1" d="M160.9,73.4C161,73.4,161,73.4,160.9,73.4C161,73.4,161,73.4,160.9,73.4L160.9,73.4
		C161,73.4,161,73.4,160.9,73.4C161,73.4,161,73.4,160.9,73.4C160.9,73.4,160.9,73.4,160.9,73.4z"/>
	<path class="st1" d="M159,76.1c0,0.1,0.7,0.4,0.9,0.3c1.4-0.6,0.9-1.9,1-3C159.9,74,159.1,74.9,159,76.1z"/>
	<path class="st1" d="M156.4,75.7c1.1-0.3,0.9-1.5,1.2-2.3l0,0c0,0,0,0,0,0c0.2-0.1,0.4-0.3,0.6-0.4c-0.1-0.1-0.3-0.2-0.4-0.3
		c-0.1,0.2-0.1,0.4-0.2,0.6c-1.1,0-1.6,0.8-1.9,1.7C155.6,75.6,156,75.8,156.4,75.7z"/>
	<path class="st1" d="M133.9,82c0.1-0.1,0.3-0.2,0.4-0.3c-0.2-0.3-0.4-0.6-0.7-0.8c0-0.5-0.2-0.9-0.8-0.8c0.3,0.3,0.5,0.6,0.8,0.8
		C133.7,81.3,133.8,81.7,133.9,82z"/>
	<path class="st1" d="M132.8,80L132.8,80C132.8,80,132.8,80,132.8,80C132.9,80,132.8,80,132.8,80z"/>
	<path class="st1" d="M171.1,122.7c-4.2-1.4-8.4-1.4-12.5,0.1C162.7,122.5,166.9,122.6,171.1,122.7z"/>
	<path class="st1" d="M230,131.9c0.7,1.6,2.7,1.3,3.6,2.6C233.9,130.9,231.3,132.6,230,131.9z"/>
	<path class="st1" d="M217.3,125.6C217.3,125.6,217.3,125.6,217.3,125.6C217.3,125.6,217.3,125.6,217.3,125.6
		C217.3,125.6,217.3,125.6,217.3,125.6C217.3,125.6,217.3,125.6,217.3,125.6z"/>
	<path class="st1" d="M216.5,126.6c0,0.1,0.2,0.2,0.3,0.3c0.2-0.4,0.3-0.9,0.5-1.3C216.7,125.7,216.5,126.1,216.5,126.6z"/>
	<path class="st1" d="M234.2,139.3c0.1,0.1,0.2,0.3,0.3,0.3c0.2,0,0.5-0.2,0.7-0.2c-0.1-0.1-0.3-0.3-0.4-0.4
		C234.6,139,234.4,139.1,234.2,139.3z"/>
	<path class="st1" d="M236.2,137.8c0-0.2,0.1-0.4,0.1-0.6C236.1,137.4,235.5,137.5,236.2,137.8z"/>
	<path class="st1" d="M236.3,137.2C236.3,137.2,236.3,137.2,236.3,137.2L236.3,137.2C236.3,137.2,236.3,137.2,236.3,137.2z"/>
	<path class="st1" d="M234.9,133.6l0.2,0l-0.1-0.2L234.9,133.6z"/>
	<path class="st1" d="M150.7,161.1c-0.2,1.6-2.6,0.9-2.4,2.4c0.1,0.7,1.5,1.7,2.4,1.8c0.9,0.1,1.7-0.8,1.5-2
		C152,162.4,152.1,161.3,150.7,161.1z"/>
	<path class="st1" d="M239.2,123.6c0.1,0.2,0.3,0.4,0.5,0.5c0.1,0,0.3-0.1,0.6-0.3c-0.3-0.3-0.6-0.5-0.9-0.7
		C239.4,123.3,239.2,123.5,239.2,123.6z"/>
</g>
<path class="st1" d="M111.3,197.2l-14.6,42.3H81.7L67,197.2h12.6l9.6,30.5l9.5-30.5H111.3z M141.8,232.6h-15l-2.3,6.9h-12.4
	l15.4-42.3h13.6l15.4,42.3H144L141.8,232.6z M138.8,223.6l-4.6-13.7l-4.5,13.7H138.8z M172,230.5h13.1v9h-24.9v-42.3H172V230.5z
	 M201.3,197.2v24.5c0,2.3,0.5,4,1.6,5.3c1.1,1.2,2.7,1.9,4.9,1.9s3.8-0.6,4.9-1.9c1.1-1.3,1.7-3,1.7-5.3v-24.5H226v24.5
	c0,3.9-0.8,7.2-2.5,10c-1.6,2.7-3.9,4.8-6.7,6.2c-2.8,1.4-5.9,2-9.4,2c-3.4,0-6.5-0.7-9.2-2c-2.7-1.4-4.8-3.5-6.4-6.2
	c-1.5-2.7-2.3-6-2.3-10v-24.5H201.3z M244.2,206.6v6.9h13.5v8.9h-13.5v7.6h15.3v9.4h-27.1v-42.3h27.1v9.4H244.2z M281.3,239.9
	c-4.9,0-9-1.2-12.1-3.5c-3.2-2.4-4.9-5.7-5.1-10.1h12.5c0.1,1.5,0.6,2.6,1.3,3.2c0.8,0.7,1.7,1,2.9,1c1.1,0,2-0.3,2.6-0.8
	c0.7-0.6,1.1-1.3,1.1-2.3c0-1.2-0.6-2.2-1.7-2.9c-1.2-0.7-3-1.4-5.6-2.3c-2.8-0.9-5-1.8-6.7-2.6c-1.7-0.9-3.2-2.1-4.4-3.8
	c-1.2-1.7-1.9-3.9-1.9-6.5c0-2.7,0.7-5,2-7c1.4-2,3.2-3.4,5.6-4.4s5.1-1.5,8.2-1.5c4.9,0,8.8,1.2,11.8,3.5c3,2.3,4.5,5.5,4.7,9.7
	h-12.8c0-1.3-0.4-2.2-1.2-2.9c-0.7-0.6-1.7-1-2.8-1c-0.9,0-1.6,0.3-2.2,0.8c-0.6,0.5-0.8,1.3-0.8,2.2c0,0.8,0.3,1.5,0.9,2.1
	c0.6,0.6,1.4,1.1,2.3,1.5c0.9,0.4,2.3,0.9,4.1,1.6c2.7,0.9,4.9,1.8,6.6,2.8c1.8,0.9,3.3,2.1,4.5,3.8c1.3,1.6,1.9,3.6,1.9,6.1
	c0,2.5-0.6,4.8-1.9,6.8c-1.2,2-3.1,3.6-5.5,4.7C287.3,239.4,284.5,239.9,281.3,239.9z"/>
</svg>
