<?xml version="1.0" encoding="UTF-8"?>
<svg id="Layer_1" data-name="Layer 1" xmlns="http://www.w3.org/2000/svg" viewBox="0 0 366 314">
  <defs>
    <style>
      .cls-1 {
        fill: #fff;
      }

      .cls-2 {
        fill: #3f8dc5;
      }
    </style>
  </defs>
  <rect class="cls-2" width="366" height="314" rx="20" ry="20"/>
  <g>
    <path class="cls-1" d="m277.71,136.87c-.84-.56-2.05-1.11-1.69-2.35.36-1.21,1.55-1.04,2.63-1.06,8.78-.17,16.52-4.91,25.73-5.11-1.81-2.22-4.86-.99-5.35-3.72,0,0-.02,0-.02.01,7.57-10.72,1.36-26.54-11.86-30.76-8.37-2.67-17.06-4.57-25.15-7.69-11.37-4.38-22.96-7.67-34.6-11.03-6.16-1.78-12.61-.51-18.66-2.55,3.14,2.51,6.31,4.99,9.4,7.57.76.64,1.68,1.71,1.17,2.69-.75,1.43-2.13.13-3.23.29-.31-1.13-1.19-1.14-2.11-1.05.05-.78-.52-.94-1.12-1.07h0c-8.8-5.11-17.74-3.94-26.93-1-8.19,2.62-12.8,10.68-20.95,13.26-.51.16-.87,1.45-.95,2.25-.18,1.94-1.2,2.02-2.44,1.13-.99-.71-3.31-1.56-1.59-3.03,5.74-4.93,5.83-11.23,5.06-17.88l-.04-.03c-1.4,0-2.8,0-4.2,0,.22-1.64-.65-2.2-2.13-2.13.08-2.09-2.57-1.56-3.04-3.12,3.74-1.83,6.31-.39,9.37,5.25l.03.03c5.7-.28,10.91-2.45,16.3-4.03,9.1-2.67,18.2-1.5,27.22.78-1.83-1.84-3.55-3.8-5.51-5.48-6.13-5.27-9.2-5.65-15.64-.48-3.88,3.12-8.29,4.43-12.66,6.17-4.74,1.88-8.95,1.52-12.51-2.48-2.46-2.77-4.89-2.42-8.42-1.27-6.57,2.13-13.32,5.16-20.59,2.61,2.81,3.04,6.09,3.34,9.88,1.92,5.16-1.94,10.39-2.95,15.54.14.7.7,1.39,1.4,2.09,2.09.5,1.45,1.27,2.88,1.42,4.37.26,2.68-1.23,1.6-2.42.96.01-.75-.3-1.17-1.12-1.09-2.95-3.28-4.29-3.5-6.35-1.04-2.95,1.96-3.2,3.18-1.09,5.3,1.63,4.5,5.72.65,8.4,2.56-2.9,7.57-12.1,8.12-16.47,15.48-3.01-9.57-7.03-17.5-14.17-23.4.01-.76-.41-1.04-1.11-1.01,0,0-.01.01-.02.02.01,0,.02-.02.02-.02.03-.75-.4-1.02-1.08-1.05l-.02.02.02-.02c-1.31-1.4-2.74-2.45-4.97-1.59,1.72.71,3.11,1.83,4.94,1.61-.05.75.39,1.02,1.06,1.07.36.35.72.7,1.08,1.04.14,1.74.49,3.52-2.23,1.66-1.97-1.34-4.88-4.75-6.3-2.4-1.65,2.74,3.31,2.73,4.87,4.55.8.93,2.06,1.99,3.68,1.54,2.59,4.37,3.47,9.59,7.86,13.17,2,1.63,1.83,5.49,1.95,8.52.35,8.93-4.32,16.07-9.45,22.29-6.07,7.36-20.14,8.61-29.5,4.13-3.94-1.88-8.16-3.39-10.87-7.16-.33-.3-.66-.59-.99-.88-6.23-5.73-10.06-12.23-6.82-21.03,0,0-.01,0-.02,0,1.56-2.66,3.12-5.31,4.69-7.97.46-.61.92-1.22,1.39-1.83.32-.26.83-.8.93-.73.73.49.31,1.01-.09,1.5-.37.7-.73,1.39-1.1,2.09-3.15,9.21-1.86,18.09,2.04,26.77.27.44.54.88.81,1.32.82-.91,1.51-2.04,2.98-1.94-.14.86.31,1.13,1.09,1.07.6,1.97,2.19,2.54,4.01,2.77-.05-.45-.1-.9-.15-1.36-.44-.21-.88-.41-1.33-.62-.85-.28-1.7-.57-2.55-.85-.34-.34-.67-.68-1.01-1.01h0c-.16-.28-.24-.58-.23-.91-.29-.33-.89-.85-.83-.95.57-.88,1.04-.2,1.53.18,1.56.42,3.13.82,4.12,2.27.42.25.84.5,1.25.75,5.15,2.66,11.24.3,17.28,3.18-4.98,3.3-9.51,1.71-13.97,1.12,4.97,2.93,10.02,2.91,15.13.37.99-.49,1.29-.96.9-1.56-.27-.41-1.36.25-1.65-.7,13.37-2.25,20.32-23.53,9.41-36.72h0c-.38-.37-.75-.75-1.12-1.12h0c-.35-.35-.71-.71-1.06-1.06-.34-.34-.67-.67-1.01-1.01h0c-.71-.71-1.42-1.43-2.13-2.14,0,0,0,0,0,0-.86-.99-1.91-1.41-3.19-1.11.09-.82-.5-.96-1.13-1.07,0,0,0,.01,0,.02-3.04-2.12-6.67-1.67-10.17-2.02-.49-3.28,4.15-2.9,3.41-6.12,3.48,8.78,6.23-.23,9.18.36-1.88-1.22-5.7.09-5.49-2.91.25-3.54,4.4-4.03,6.72-3.2,3.39,1.21,6.7.53,9.99,1.07-5.11-3.09-11.32-3.93-16.05-7.9-1.04-.88-2.31.57-3.16,1.36-5.34,4.96-10.19,10.5-16.74,14.02l.04.04c2.24-.03,3.98-2.58,7.41-1.39-3.04,2.14-5.32,3.82-8.48,3.52-.09.32-.17.64-.26.96-.27-.33-.54-.66-.81-.99-2.46,2.51-4.91,5.03-7.38,7.53-13.71,13.85-11.48,33.45,4.98,43.81,1.65,1.04,3.33,2.02,4.91,3.16,1.73,1.25,2.15,2.4-.49,3.07-.81.21-2.32-.35-1.96,2.55,7.64-3.99,12.02,3.73,18.7,4.94,5.81,1.05,7.88,1.89,10.65-3.46.65-1.26,1.75-1.11,2.69-1.08,6.26.17,10.99-4.71,17.09-5.43h-11.56c2-1.57,3.23-2.48,4.4-3.48,6.18-5.28,10.77-11.69,10.06-20.09-.51-5.99,1.27-9.38,6.47-12.38,3.69-2.13,6.92-2.59,10.02-.53,3.93,2.62,9.49,4.09,9.37,10.56-.19,10.39,5.09,18.11,14.89,22.3,1.56.67,3.53.56,4.65,2.19-2.97,2.52-8.32-.16-11.12,5.28,4.19-.84,7.91-1.93,10.39-.36,8.03,5.09,14.63-1.51,21.92-1.95.88-.05,1.65-1.26,2.55-1.78,3.98-2.29-1.24-2.19-.94-3.67,10.14-5.14,16.54-12.98,17.35-24.76.11-1.51-1.25-4.3,1.31-4.27,1.73.02,3.66,1.39,4.69,4.05,1.65,4.26.94,10.36,6.24,12.3,5.99,2.18,4.37,3.91.44,6.3-.23.14-.25.61-.36.93,5.42-2.39,9.92-5.88,13.58-11.97.37,4.29,1.76,7.43,1.27,10.88-.74-.03-1.08.34-1.07,1.07-.72-.01-1.11.31-1.06,1.07-1.61-.11-2.92.25-3.18,2.15-4.78,1.04-8.92,3.33-12.71,6.35-.66.07-1.14.32-1.12,1.07-.94-.12-1.76.02-2.12,1.07-1.45.13-2.45.92-3.18,2.13-1.09.32-2.16.67-2.14,2.1-1.11-.49-3.04,1.45-3.38-.85-.3-2.03-.9-4.9.76-6,2.2-1.45,1.04,1.79,2.51,2.69-.99-4.11,1.85-5.67,4.35-7.46-5.46,1.4-10.21,3.95-13.74,8.48,4.79,1.8.9,5.75,2.04,8.45-4.62-1.84-1.39-5.61-2.08-8.42-8.31,3.02-10.94,14.02-5.33,22.32-.11,1.72,1.19,2.34,2.35,3.16,6.33,4.45,13.94,2.56,20.86,3.82,14.16,2.57,27.27-5.89,41.39-6.1.07,0,.13-.31.34-.85h-7.8c2.89-3.01,8.04-1.78,8.82-6.42,1.73-.04,1.72-1.4,1.85-2.58.63-5.48.03-10.52-5.08-13.93Zm-77.39-69.57c-2.9,2.72-6.2.06-8.77,1.72,2.34-2.98,5.31-2.31,8.77-1.72Zm-49.11,16.94c-.63-1.95.32-3.59,1.06-5.27,2.28-.58,4.37.01,6.38,1.07.34.34.68.67,1.01,1.01-1.09,5.7-4.64,4.79-8.46,3.19Zm-22.3,0c.06-.6.12-1.19.18-1.79.24.04.63.01.68.13.42.92.12,1.49-.86,1.66Zm-.49,14.03c.1.12.29.25.29.36,0,.12-.2.22-.32.33-.1-.06-.21-.12-.31-.18.12-.17.23-.34.35-.51Zm-1.15-2.31c.13.23.26.46.38.68-.14.14-.26.26-.38.38-.12-.24-.28-.46-.33-.71-.02-.09.21-.23.33-.35Zm-19.09-11.25c.34-.99,1.36-3.35,3.76-2.86,1.34.27,2.75.22,4.13.31-.09.81.5.94,1.1,1.07.88.88,1.87,1.44,3.17,1.07-.22,1.63.74,2.09,2.12,2.12-.05.76.31,1.12,1.06,1.07-.02.73.28,1.13,1.06,1.06-.08.78.28,1.14,1.05,1.06-.68,1.98,1.8,3.34.99,5.7-2.97-.11-4.18-4.09-7.33-3.63-1.66-3.35-5.03-4-8.13-5.02-1.27-.41-3.51-.42-2.99-1.95Zm-17.7,19.02c.61-5.08,3.47-8.21,8.28-9.8,2.15-.71,2.45.33,2.43,2h.01s-.01,0-.01,0c-.27.08-.54.15-.81.23.12.16.24.32.36.47.16-.22.32-.44.48-.67,1.21-.69,2.71-1.12,3.57-2.11,4.29-4.97,9.18-4.86,14.52-2.12,2.64,2.54,2.92,7.1,7.43,8.22,1.14.28,1.26,2.73,1.37,4.35.57,8.3-5.35,18.35-11.65,19.7-.92.86-1.88,1.21-2.93.2.66-.41,1.33-.83,2-1.24.57-.61,1.13-1.22,1.7-1.83-5.19,3.19-10.08,2.66-15.49.53-7.33-2.9-12.21-10.04-11.26-17.92Zm1.27,12.7c-5.71-3.73-6.43-7.99-2.32-14.01-.12,5.06.69,9.36,2.32,14.01Zm-13.94-9.61c.06-5.69,1.81-10.45,5.9-14.93.74,4.63-3.38,7.46-2.71,11.47-1.78.39-.94,2.98-3.18,3.47Zm222.75,5.15c.95,4.47-.7,8.5-1.58,12.68-4.96,2.82-10.55,3.43-15.99,4.54-1.56.32-3.61,1.67-4.14-1.22-.43-2.32-.47-4.58,2.57-5.44,2.35-.67,4.67-1.51,6.94-2.41,4.44-1.77,7.03-5.52,9.58-9.27,1.4-.9,2.17-1.02,2.63,1.13Zm-8.52-12.96c.75-.69,1.44.2,1.98.81,5.05,2.34,4.58,6.61,3.88,10.96-3.79-2.22-2.47-7.08-5.09-9.91-.57-.51-1.69-1.01-.77-1.86Zm-58-19.4c.46-1.37,1.75-1.06,2.68-.79,6.82,2,13.73,3.78,21.1,7.2-8.35,1.36-15.05-1.17-21.8-3.24-1.43-.44-2.56-1.43-1.98-3.17Zm20.71,9.89c-5.65.75-10.11.4-15.55.03,5.35-2.41,9.76-2.62,15.55-.03Zm-29.5-5.17c2.83-.04,5.66-.01,8.5-.01.05.57.1,1.15.14,1.72-2.75.61-5.48,1.36-8.26,1.78-1.48.22-2.88-.62-2.84-2.3.03-1.42,1.47-1.18,2.46-1.19Zm-22.73,1.76c6.04.52,7.89,5.23,10.62,9.18.68.98.73,2.36,1.26,3.47,2.36,4.99,2.3,9.4-1.91,13.66-4.26,4.31-6.68,10.39-13.68,11.91-2.63.57-4.25-.14-5.4-1.59-1.24-1.56.28-3.43,1.44-4.55,3.41-3.32,7.06-6.4,10.6-9.59.49-.45.87-1.03,1.4-1.68-2.73-.81-4.82,2.28-7.87.2,2.84-2.52,5.62-5,8.41-7.48-.3-.37-.6-.73-.9-1.1-6.16,2.6-10.33,8.43-16.53,10.98-.43.04-.85.07-1.28.11.19-.38.37-.76.56-1.14,2.8-5.8,9.03-8.46,13.1-13.87-4.38-.22-5.94,3.77-9.15,4.42-.28.24-.56.48-.84.72-1.09.44-2.34,1.61-2.84-.59.57-.15,1.15-.29,1.72-.44.37-.33.74-.65,1.11-.98.8-.94,1.6-1.88,2.4-2.81-2.54.41-4.22,1.91-5.27,4.2-.75.39-1.57.69-2.21,1.21-1.26,1-2.67,2.32-2.52,3.86.21,2.22,2.93.04,3.94,1.79-.49,1-1.08,2.07-1.56,3.19-.67,1.54.39,3.06,1.47,2.38,3.59-2.24,5.55,1.31,8.39,1.46-.33,2.09-1.81,3.01-2.93,4-1.57,1.39-1.43,5.06-4.48,4.24-3.15-.84-5.51-3.16-6.74-6.3-5.56-14.15,4.81-30.14,19.71-28.85Zm17.75,36.73c-9.18,8.8-24.55,11.44-36.09,6.01-10.64-5-15.51-14.95-12.61-26.3,1.6-6.26,4.76-11.79,9.02-16.66,1-1.14,2.05-3.14,3.77-1.7,1.53,1.28-.56,2.43-1.17,3.43-5.24,8.59-8.63,17.41-5.22,27.68,3.4,10.23,19.43,16.98,28.23,11.24,5.14-3.35,8.67-8.47,11.1-14.2.6-1.43,1.21-2.85,1.98-4.69,1.9,2.18-.35,3.95.28,5.63,4.34-3.37,4.87-9.81,1.11-15.66-5.6-8.71-12.83-15.08-23.69-16.09-1.15-.11-3,.2-3-1.38,0-2.17,2.09-1.24,3.31-1.41,5.4-.74,10.36,1.59,15.54,2.34-.05.78.54.93,1.12,1.09v-.02c.71.36,1.42.71,2.13,1.07,1.76,1.67,3.58,3.28,5.27,5.02,9.28,9.51,7.69,26.19-1.08,34.59Zm21.24-19.21c-.6,1.75-1.97.7-3.05.29-3.5-1.34-6.05-4.12-9.16-6.05-.65-.4-.8-1.2-.39-1.83.21-.33.83-.4,1.46-.67,3.55,1.31,7.23,2.47,10.72,4.05,1.93.88.88,2.89.42,4.21Zm34.76,50.37c-1.44,3.08-5.53,3.8-8.84,4.43-11.12,2.13-22.31,3.71-33.66,3.84-2.65.03-5.31.15-7.93.52-4.1.57-7.69-.35-10.84-3.03-.77-6.17.46-7.41,6.43-7.67,9.56-.41,19.11-1.12,28.83-2.24-4.33-.32-8.93-1.71-12.9-.68-4.05,1.05-8.02.81-11.98,1.42-4.64.72-4.86-1.19-2.9-4.58,3.18-.78,4.99-3.46,7.37-5.36h0c1.01-.42,2.09-.78,2.17-2.13,1.52-.01,2.73-.5,3.18-2.12.94.09,1.76-.05,2.13-1.07.63-.09,1.13-.31,1.07-1.08,4.69-1.21,8.77-3.64,12.7-6.35h0c1.4-.25,2.54-.9,3.26-2.18h-.01c.36-.36.71-.71,1.07-1.07.33-.33.67-.67,1-1.01,2.91-2.73-.23-5.73.35-8.45,2.02-9.39-4.73-12.38-11.15-15.32-4.96-2.27-10.24-3.85-15.38-5.72-1.64-.59-4.13-1.12-3.32-3.18.78-2.01,3.17-1.71,5.05-.64.6.34,1.3.99,1.85.89,8.17-1.52,15.76,3.71,23.51,2.67,9.61-1.29,18.29-.58,26.42,5.1-1.98-2.95-5.33-3.53-7.7-5.56-1.35-.4-2.89-.23-4.01-1.34-4.3-.1-8.61-1.47-12.9.68-.91.46-3.85,1.24-3.92-1.22-.09-3.05,2.76-1.66,4.43-2h0s0,0-.01.01l-.03.03s.03,0,.04.01c0-.01,0-.02,0-.04,4.83-3.17,8.9.43,13.26,1.51,1.37.42,2.73.84,4.1,1.27,4.34.86,8.32,2.36,11.07,6.09.83.48,2.05,1.06,1.06,2.09-.88.91-1.65-.23-2.26-.93-.51.1-1.71-.61-1.32.53.35,1.03,1.49,2.58,2.73,1.99,5.09-2.41,4.47,2.6,5.74,4.54,1.62,2.5,1.16,4.92-1.33,7.46-5.78,5.91-13.01,8.04-20.7,9.74-8.83,1.95-10.76,5.34-9.08,14.34.17.94.44,1.66,1.28,2.15,1.53.9,3.8,2.06,2.92,3.82-1.01,2.03-2.87,3.98-5.72,4.12-1.37.06-2.71.45-3.94,1.14,6.84-.51,13.78-.77,19.26-7.2,1.28,4.43,1.07,8.51-.46,11.77Zm-4.92-11.25c.57-.72,1.14-1.45,1.86-2.38-.19,1.37,1.09,3.57-1.86,2.38Zm-.06-.03c-3.59-1.82-7.94-2.69-7.43-8.48.33-3.78,1.55-3.12,3.76-1.66,3.75,2.5,3.38,6.43,3.68,10.14Zm9.61,10.63c-1.04.45-2.61,2.4-2.61-.64,0-3.82.38-7.65.67-12.99,3.99,5.09,2.86,9.38,1.93,13.63Z"/>
    <path class="cls-1" d="m129.91,69.39l-.02.03s.06,0,.1,0c-.01-.02-.03-.04-.04-.06-.08-.01-.15-.02-.23-.04.06.03.12.07.17.1,0,0,.01-.01.02-.03Z"/>
    <path class="cls-1" d="m241.58,124.67s0,0,0-.01c0,0,0,0-.01,0,0,0,0,0-.01.01,0,0,.01,0,.02,0Z"/>
    <path class="cls-1" d="m208.62,72.55v.02s.07.03.11.04c-.03-.03-.07-.05-.1-.08-.03,0-.06-.01-.08-.02l.06.06s0,0,.01-.02Z"/>
    <path class="cls-1" d="m133.08,71.53s.09.03.14.05c-.03-.03-.06-.07-.09-.1-.01-.01-.02-.02-.03-.03,0,.03,0,.05-.02.08Z"/>
    <path class="cls-1" d="m220.35,137.43s-.04-.02-.06-.02c0,.02,0,.04.01.06,0,0,.02,0,.03-.01,0,0,.01-.01.02-.02Z"/>
    <path class="cls-1" d="m234.16,128.9c2.7-1,5.28-2.22,7.4-4.23-2.96.55-5.64,1.59-7.4,4.23Z"/>
    <path class="cls-1" d="m234.16,128.9s-.02,0-.03.01c-.01,0-.03.02-.04.03.02,0,.03-.01.05-.01,0-.01.01-.02.02-.03Z"/>
    <path class="cls-1" d="m132.05,70.45c.35.33.7.67,1.05,1,.16-.8-.37-.98-1.03-1.03-.28-1.24-1.19-1.1-2.09-1.02.47.77,1.21,1.02,2.06,1.04Z"/>
    <path class="cls-1" d="m92.7,78.94s-.03.02-.03.02c.02,0,.03,0,.05,0,0-.02.01-.05.02-.07-.02,0-.05,0-.07,0,0,.02,0,.04,0,.07,0,0,.01-.01.03-.02Z"/>
    <path class="cls-1" d="m91.66,78.94h0s0,0,0,0t0,0Z"/>
    <path class="cls-1" d="m92.73,77.89c.62-.09,1.05-.36,1.07-1.06l-.04-.04c-.71,0-1.15.27-1.06,1.06-.75-.03-1.09.34-1.04,1.08.34-.01.68-.03,1.02-.04.02-.34.04-.68.06-1.01Z"/>
    <path class="cls-1" d="m99.64,126.98c-.13,0-.27.19-.4.3.13.12.25.33.38.34.13,0,.27-.19.37-.28-.11-.13-.22-.35-.35-.36Z"/>
    <path class="cls-1" d="m101.64,113.16c3.76-.83,6.65-1.35,8.68-3.98-.27-.08-.54-.18-.81-.22-.17-.02-.35.05-.51.07-.39.58-.92.96-1.55.45-.16-.13.1-.77.16-1.17.73-1.25,1.48-2.49,2.22-3.75l-.07-.1c-3.42,1.77-6.19,4.14-8.11,8.68Z"/>
    <path class="cls-1" d="m99,96.98c-2.56,1.48-4.39,2.88-5.19,5.62,4.15.18,4.26-2.71,5.19-5.62Z"/>
    <path class="cls-1" d="m109.75,104.48s.07.1.07.1c2.37-.22,3.69-1.7,5.72-4.39-3.03,1.45-4.74,2.46-5.79,4.3Z"/>
    <path class="cls-1" d="m97.87,108.63c.07.27.95.62,1.25.48,1.61-.77.06-2.55,1.04-3.58,1.88-.95,3.65-2,4.23-4.24-1.82,1-3.72,1.92-4.27,4.21-1.85.25-2.74,1.26-2.25,3.13Z"/>
    <path class="cls-1" d="m104.4,101.26s0,.02,0,.03c0,0,.01,0,.02-.01v-.02Z"/>
    <path class="cls-1" d="m125.14,108.13c-1.4,1.62-1.45,3.21-1.57,4.78,1.24-1.18,1.82-2.59,1.57-4.78Z"/>
    <path class="cls-1" d="m107.6,99.15c2.01-.85,3.56-2.11,3.94-4.41-.92,1.82-3.83,1.84-3.98,4.36,0,0,0,.01.01.02,0-.01-.01-.02-.01-.02-1.05-.29-1.65.24-2.07,1.11.99.22,1.71-.1,2.11-1.06Z"/>
    <path class="cls-1" d="m105.49,100.2s-.02,0-.03,0c0,.02,0,.03,0,.04,0,0,.01-.01.02-.02,0,0,0-.01,0-.02Z"/>
    <path class="cls-1" d="m120.35,117.25c-.82.45-1.38,1.04-1.08,2.08l.02.03c.92-.43,1.33-1.1,1.05-2.11Z"/>
    <path class="cls-1" d="m120.34,117.21s.02.03.02.03c0,0,.02-.02.03-.03-.02,0-.04,0-.06,0,0,.02,0,.03.01.04,0,0,.01,0,.02-.01l-.02-.03Z"/>
    <path class="cls-1" d="m104.4,101.26h.01s.01,0,.02,0c-.01,0-.02,0-.03,0Z"/>
    <path class="cls-1" d="m105.46,100.24c-.34.34-.69.68-1.03,1.03.7,0,1.11-.26,1.03-1.03Z"/>
    <path class="cls-1" d="m118.48,119.43c.09.19.17.38.26.56.19-.21.37-.43.56-.64l-.02-.03c-.26.04-.53.07-.79.11Z"/>
    <path class="cls-1" d="m121.46,116.19l-.03-.03s.03.03.03.03c.25-.12.5-.24.76-.36-.13-.16-.27-.33-.4-.49-.13.27-.27.53-.4.8-.34.35-.68.71-1.02,1.06.76.12,1.04-.3,1.06-1.01Z"/>
    <path class="cls-1" d="m123.56,112.97l.02.02s0-.06,0-.08c-.02.01-.03.03-.04.04,0,.02-.01.04-.02.05.02,0,.04,0,.06-.01,0,0,0,0-.02-.02Z"/>
    <path class="cls-1" d="m123.52,113c-.47.11-.98.19-.33.82.11-.27.22-.55.33-.82Z"/>
    <path class="cls-1" d="m194.78,94.89s-.03.03-.04.05c.03,0,.05,0,.08-.01,0,0-.04-.03-.04-.03Z"/>
    <path class="cls-1" d="m197.99,91.71s0-.02,0-.03c0,0,0,.02-.02.02,0,0,0,0,0,0Z"/>
    <path class="cls-1" d="m198.35,90.5c-.12.39-.23.79-.35,1.18.24-.31.49-.62.74-.94-.13-.08-.26-.16-.39-.25Z"/>
    <path class="cls-1" d="m197.97,91.71c-.78-.08-1.13.27-1.06,1.05-.7.01-1.14.27-1.04,1.04.35-.35.7-.69,1.05-1.03.35-.35.7-.71,1.05-1.06Z"/>
    <path class="cls-1" d="m197.98,91.7s0,0,0,0h.02s0,0,0,0Z"/>
    <path class="cls-1" d="m195.87,93.8s-.01.01-.02.02l.02.03s0-.03,0-.05Z"/>
    <path class="cls-1" d="m195.85,93.82s-.02.02-.02.02c.02,0,.03,0,.05,0l-.02-.03Z"/>
    <path class="cls-1" d="m194.82,94.85c.34-.33.67-.67,1.01-1-.75-.07-1.06.29-1.01,1Z"/>
    <path class="cls-1" d="m194.78,94.89l.04.03s0-.05,0-.07c-.01,0-.02.02-.04.03Z"/>
    <path class="cls-1" d="m218.36,115.55c0,.12.18.24.28.36.11-.12.21-.23.32-.35-.1-.12-.21-.24-.31-.36-.11.11-.3.23-.3.35Z"/>
    <path class="cls-1" d="m261.02,90.4c.13-.02.23-.22.34-.33-.56-.15-1.12-.31-1.67-.46.1.81.67.89,1.33.8Z"/>
  </g>
  <path class="cls-1" d="m113.5,197.87l-14.58,42.3h-15.06l-14.64-42.3h12.6l9.6,30.54,9.54-30.54h12.54Zm15.42,0v42.3h-11.76v-42.3h11.76Zm22.66,42.72c-4.92,0-8.96-1.16-12.12-3.48-3.16-2.36-4.86-5.72-5.1-10.08h12.54c.12,1.48.56,2.56,1.32,3.24.76.68,1.74,1.02,2.94,1.02,1.08,0,1.96-.26,2.64-.78.72-.56,1.08-1.32,1.08-2.28,0-1.24-.58-2.2-1.74-2.88-1.16-.68-3.04-1.44-5.64-2.28-2.76-.92-5-1.8-6.72-2.64-1.68-.88-3.16-2.14-4.44-3.78-1.24-1.68-1.86-3.86-1.86-6.54s.68-5.04,2.04-6.96c1.36-1.96,3.24-3.44,5.64-4.44,2.4-1,5.12-1.5,8.16-1.5,4.92,0,8.84,1.16,11.76,3.48,2.96,2.28,4.54,5.5,4.74,9.66h-12.78c-.04-1.28-.44-2.24-1.2-2.88-.72-.64-1.66-.96-2.82-.96-.88,0-1.6.26-2.16.78s-.84,1.26-.84,2.22c0,.8.3,1.5.9,2.1.64.56,1.42,1.06,2.34,1.5.92.4,2.28.92,4.08,1.56,2.68.92,4.88,1.84,6.6,2.76,1.76.88,3.26,2.14,4.5,3.78,1.28,1.6,1.92,3.64,1.92,6.12s-.64,4.78-1.92,6.78c-1.24,2-3.06,3.58-5.46,4.74-2.36,1.16-5.16,1.74-8.4,1.74Zm33.01-42.72v42.3h-11.76v-42.3h11.76Zm26.98,42.72c-3.96,0-7.6-.92-10.92-2.76-3.32-1.88-5.96-4.46-7.92-7.74-1.92-3.32-2.88-7.06-2.88-11.22s.96-7.88,2.88-11.16c1.96-3.32,4.6-5.9,7.92-7.74,3.32-1.84,6.96-2.76,10.92-2.76s7.64.92,10.92,2.76c3.32,1.84,5.94,4.42,7.86,7.74,1.92,3.28,2.88,7,2.88,11.16s-.96,7.9-2.88,11.22c-1.92,3.28-4.54,5.86-7.86,7.74-3.32,1.84-6.96,2.76-10.92,2.76Zm0-10.92c3,0,5.36-.98,7.08-2.94,1.76-1.96,2.64-4.58,2.64-7.86s-.88-6-2.64-7.92c-1.72-1.96-4.08-2.94-7.08-2.94s-5.42.98-7.14,2.94c-1.72,1.92-2.58,4.56-2.58,7.92s.86,5.96,2.58,7.92c1.72,1.92,4.1,2.88,7.14,2.88Zm66.13,10.5h-11.76l-15.66-23.64v23.64h-11.76v-42.3h11.76l15.66,23.94v-23.94h11.76v42.3Z"/>
</svg>